<svg width="336" height="336" viewBox="0 0 336 336" fill="none" xmlns="http://www.w3.org/2000/svg">
<rect width="336" height="336" fill="#95DBAD"/>
<g clip-path="url(#clip0_849_309048)">
<path d="M104 152H96V160H104V152Z" fill="#333940"/>
<path d="M112 152H104V160H112V152Z" fill="#333940"/>
<path d="M112 160H104V168H112V160Z" fill="#333940"/>
<path d="M104 160H96V168H104V160Z" fill="#333940"/>
<path d="M96 160H88V168H96V160Z" fill="#333940"/>
<path d="M96 168H88V176H96V168Z" fill="#333940"/>
<path d="M104 168H96V176H104V168Z" fill="#333940"/>
<path d="M112 168H104V176H112V168Z" fill="#333940"/>
<path d="M112 176H104V184H112V176Z" fill="#333940"/>
<path d="M104 176H96V184H104V176Z" fill="#333940"/>
<path d="M96 176H88V184H96V176Z" fill="#333940"/>
<path d="M88 176H80V184H88V176Z" fill="#333940"/>
<path d="M88 184H80V192H88V184Z" fill="#333940"/>
<path d="M96 184H88V192H96V184Z" fill="#333940"/>
<path d="M104 184H96V192H104V184Z" fill="#333940"/>
<path d="M112 184H104V192H112V184Z" fill="#333940"/>
<path d="M112 192H104V200H112V192Z" fill="#333940"/>
<path d="M104 192H96V200H104V192Z" fill="#333940"/>
<path d="M96 192H88V200H96V192Z" fill="#333940"/>
<path d="M88 192H80V200H88V192Z" fill="#333940"/>
<path d="M88 200H80V208H88V200Z" fill="#333940"/>
<path d="M96 200H88V208H96V200Z" fill="#333940"/>
<path d="M104 200H96V208H104V200Z" fill="#333940"/>
<path d="M112 200H104V208H112V200Z" fill="#333940"/>
<path d="M112 208H104V216H112V208Z" fill="#333940"/>
<path d="M104 208H96V216H104V208Z" fill="#333940"/>
<path d="M96 208H88V216H96V208Z" fill="#333940"/>
<path d="M88 208H80V216H88V208Z" fill="#333940"/>
<path d="M88 216H80V224H88V216Z" fill="#333940"/>
<path d="M96 216H88V224H96V216Z" fill="#333940"/>
<path d="M104 216H96V224H104V216Z" fill="#333940"/>
<path d="M112 216H104V224H112V216Z" fill="#333940"/>
<path d="M120 216H112V224H120V216Z" fill="#333940"/>
<path d="M120 208H112V216H120V208Z" fill="#333940"/>
<path d="M120 200H112V208H120V200Z" fill="#333940"/>
<path d="M120 192H112V200H120V192Z" fill="#333940"/>
<path d="M120 184H112V192H120V184Z" fill="#333940"/>
<path d="M120 176H112V184H120V176Z" fill="#333940"/>
<path d="M120 168H112V176H120V168Z" fill="#333940"/>
<path d="M120 160H112V168H120V160Z" fill="#333940"/>
<path d="M120 152H112V160H120V152Z" fill="#333940"/>
<path d="M120 144H112V152H120V144Z" fill="#333940"/>
<path d="M128 144H120V152H128V144Z" fill="#333940"/>
<path d="M128 152H120V160H128V152Z" fill="#333940"/>
<path d="M128 160H120V168H128V160Z" fill="#333940"/>
<path d="M128 168H120V176H128V168Z" fill="#333940"/>
<path d="M128 176H120V184H128V176Z" fill="#333940"/>
<path d="M128 184H120V192H128V184Z" fill="#333940"/>
<path d="M128 192H120V200H128V192Z" fill="#333940"/>
<path d="M128 200H120V208H128V200Z" fill="#333940"/>
<path d="M128 208H120V216H128V208Z" fill="#333940"/>
<path d="M128 216H120V224H128V216Z" fill="#333940"/>
<path d="M136 216H128V224H136V216Z" fill="#333940"/>
<path d="M136 208H128V216H136V208Z" fill="#333940"/>
<path d="M136 200H128V208H136V200Z" fill="#333940"/>
<path d="M136 192H128V200H136V192Z" fill="#333940"/>
<path d="M136 184H128V192H136V184Z" fill="#333940"/>
<path d="M136 176H128V184H136V176Z" fill="#333940"/>
<path d="M136 168H128V176H136V168Z" fill="#333940"/>
<path d="M136 160H128V168H136V160Z" fill="#333940"/>
<path d="M136 152H128V160H136V152Z" fill="#333940"/>
<path d="M136 144H128V152H136V144Z" fill="#333940"/>
<path d="M144 136H136V144H144V136Z" fill="#333940"/>
<path d="M136 136H128V144H136V136Z" fill="#333940"/>
<path d="M128 136H120V144H128V136Z" fill="#333940"/>
<path d="M112 144H104V152H112V144Z" fill="#333940"/>
<path d="M144 144H136V152H144V144Z" fill="#333940"/>
<path d="M144 152H136V160H144V152Z" fill="#333940"/>
<path d="M144 160H136V168H144V160Z" fill="#333940"/>
<path d="M144 168H136V176H144V168Z" fill="#333940"/>
<path d="M144 176H136V184H144V176Z" fill="#333940"/>
<path d="M144 184H136V192H144V184Z" fill="#333940"/>
<path d="M144 192H136V200H144V192Z" fill="#333940"/>
<path d="M144 200H136V208H144V200Z" fill="#333940"/>
<path d="M144 208H136V216H144V208Z" fill="#333940"/>
<path d="M144 216H136V224H144V216Z" fill="#333940"/>
<path d="M152 136H144V144H152V136Z" fill="#333940"/>
<path d="M152 128H144V136H152V128Z" fill="#333940"/>
<path d="M160 128H152V136H160V128Z" fill="#333940"/>
<path d="M168 128H160V136H168V128Z" fill="#333940"/>
<path d="M176 128H168V136H176V128Z" fill="#333940"/>
<path d="M184 128H176V136H184V128Z" fill="#333940"/>
<path d="M192 128H184V136H192V128Z" fill="#333940"/>
<path d="M200 128H192V136H200V128Z" fill="#333940"/>
<path d="M152 144H144V152H152V144Z" fill="#333940"/>
<path d="M152 152H144V160H152V152Z" fill="#333940"/>
<path d="M152 160H144V168H152V160Z" fill="#333940"/>
<path d="M152 168H144V176H152V168Z" fill="#333940"/>
<path d="M152 176H144V184H152V176Z" fill="#333940"/>
<path d="M152 184H144V192H152V184Z" fill="#333940"/>
<path d="M152 192H144V200H152V192Z" fill="#333940"/>
<path d="M152 200H144V208H152V200Z" fill="#333940"/>
<path d="M152 208H144V216H152V208Z" fill="#333940"/>
<path d="M152 216H144V224H152V216Z" fill="#333940"/>
<path d="M160 136H152V144H160V136Z" fill="#333940"/>
<path d="M160 144H152V152H160V144Z" fill="#333940"/>
<path d="M160 152H152V160H160V152Z" fill="#333940"/>
<path d="M160 160H152V168H160V160Z" fill="#333940"/>
<path d="M160 168H152V176H160V168Z" fill="#333940"/>
<path d="M160 176H152V184H160V176Z" fill="#333940"/>
<path d="M160 184H152V192H160V184Z" fill="#333940"/>
<path d="M160 192H152V200H160V192Z" fill="#333940"/>
<path d="M160 200H152V208H160V200Z" fill="#333940"/>
<path d="M160 208H152V216H160V208Z" fill="#333940"/>
<path d="M160 216H152V224H160V216Z" fill="#333940"/>
<path d="M168 136H160V144H168V136Z" fill="#333940"/>
<path d="M168 144H160V152H168V144Z" fill="#333940"/>
<path d="M168 152H160V160H168V152Z" fill="#333940"/>
<path d="M168 160H160V168H168V160Z" fill="#333940"/>
<path d="M168 168H160V176H168V168Z" fill="#333940"/>
<path d="M168 176H160V184H168V176Z" fill="#333940"/>
<path d="M168 184H160V192H168V184Z" fill="#333940"/>
<path d="M168 192H160V200H168V192Z" fill="#333940"/>
<path d="M168 200H160V208H168V200Z" fill="#333940"/>
<path d="M168 208H160V216H168V208Z" fill="#333940"/>
<path d="M168 216H160V224H168V216Z" fill="#333940"/>
<path d="M176 136H168V144H176V136Z" fill="#333940"/>
<path d="M176 144H168V152H176V144Z" fill="#333940"/>
<path d="M176 152H168V160H176V152Z" fill="#333940"/>
<path d="M176 160H168V168H176V160Z" fill="#333940"/>
<path d="M176 168H168V176H176V168Z" fill="#333940"/>
<path d="M176 176H168V184H176V176Z" fill="#333940"/>
<path d="M176 184H168V192H176V184Z" fill="#333940"/>
<path d="M176 192H168V200H176V192Z" fill="#333940"/>
<path d="M176 200H168V208H176V200Z" fill="#333940"/>
<path d="M176 208H168V216H176V208Z" fill="#333940"/>
<path d="M176 216H168V224H176V216Z" fill="#333940"/>
<path d="M184 136H176V144H184V136Z" fill="#333940"/>
<path d="M184 144H176V152H184V144Z" fill="#333940"/>
<path d="M184 152H176V160H184V152Z" fill="#333940"/>
<path d="M184 160H176V168H184V160Z" fill="#333940"/>
<path d="M184 168H176V176H184V168Z" fill="#333940"/>
<path d="M184 176H176V184H184V176Z" fill="#333940"/>
<path d="M184 184H176V192H184V184Z" fill="#333940"/>
<path d="M184 192H176V200H184V192Z" fill="#333940"/>
<path d="M184 200H176V208H184V200Z" fill="#333940"/>
<path d="M184 208H176V216H184V208Z" fill="#333940"/>
<path d="M184 216H176V224H184V216Z" fill="#333940"/>
<path d="M192 136H184V144H192V136Z" fill="#333940"/>
<path d="M192 144H184V152H192V144Z" fill="#333940"/>
<path d="M192 152H184V160H192V152Z" fill="#333940"/>
<path d="M192 160H184V168H192V160Z" fill="#333940"/>
<path d="M192 168H184V176H192V168Z" fill="#333940"/>
<path d="M192 176H184V184H192V176Z" fill="#333940"/>
<path d="M192 184H184V192H192V184Z" fill="#333940"/>
<path d="M192 192H184V200H192V192Z" fill="#333940"/>
<path d="M192 200H184V208H192V200Z" fill="#333940"/>
<path d="M192 208H184V216H192V208Z" fill="#333940"/>
<path d="M192 216H184V224H192V216Z" fill="#333940"/>
<path d="M200 136H192V144H200V136Z" fill="#333940"/>
<path d="M208 136H200V144H208V136Z" fill="#333940"/>
<path d="M216 136H208V144H216V136Z" fill="#333940"/>
<path d="M200 144H192V152H200V144Z" fill="#333940"/>
<path d="M200 152H192V160H200V152Z" fill="#333940"/>
<path d="M200 160H192V168H200V160Z" fill="#333940"/>
<path d="M200 168H192V176H200V168Z" fill="#333940"/>
<path d="M200 176H192V184H200V176Z" fill="#333940"/>
<path d="M200 184H192V192H200V184Z" fill="#333940"/>
<path d="M200 192H192V200H200V192Z" fill="#333940"/>
<path d="M200 200H192V208H200V200Z" fill="#333940"/>
<path d="M200 208H192V216H200V208Z" fill="#333940"/>
<path d="M200 216H192V224H200V216Z" fill="#333940"/>
<path d="M208 144H200V152H208V144Z" fill="#333940"/>
<path d="M208 152H200V160H208V152Z" fill="#333940"/>
<path d="M208 160H200V168H208V160Z" fill="#333940"/>
<path d="M208 168H200V176H208V168Z" fill="#333940"/>
<path d="M208 176H200V184H208V176Z" fill="#333940"/>
<path d="M208 184H200V192H208V184Z" fill="#333940"/>
<path d="M208 192H200V200H208V192Z" fill="#333940"/>
<path d="M208 200H200V208H208V200Z" fill="#333940"/>
<path d="M208 208H200V216H208V208Z" fill="#333940"/>
<path d="M208 216H200V224H208V216Z" fill="#333940"/>
<path d="M216 144H208V152H216V144Z" fill="#333940"/>
<path d="M216 152H208V160H216V152Z" fill="#333940"/>
<path d="M216 160H208V168H216V160Z" fill="#333940"/>
<path d="M216 168H208V176H216V168Z" fill="#333940"/>
<path d="M216 176H208V184H216V176Z" fill="#333940"/>
<path d="M216 184H208V192H216V184Z" fill="#333940"/>
<path d="M216 192H208V200H216V192Z" fill="#333940"/>
<path d="M216 200H208V208H216V200Z" fill="#333940"/>
<path d="M216 208H208V216H216V208Z" fill="#333940"/>
<path d="M216 216H208V224H216V216Z" fill="#333940"/>
<path d="M224 144H216V152H224V144Z" fill="#333940"/>
<path d="M232 144H224V152H232V144Z" fill="#333940"/>
<path d="M224 152H216V160H224V152Z" fill="#333940"/>
<path d="M224 160H216V168H224V160Z" fill="#333940"/>
<path d="M224 168H216V176H224V168Z" fill="#333940"/>
<path d="M224 176H216V184H224V176Z" fill="#333940"/>
<path d="M224 184H216V192H224V184Z" fill="#333940"/>
<path d="M224 192H216V200H224V192Z" fill="#333940"/>
<path d="M224 200H216V208H224V200Z" fill="#333940"/>
<path d="M224 208H216V216H224V208Z" fill="#333940"/>
<path d="M224 216H216V224H224V216Z" fill="#333940"/>
<path d="M232 152H224V160H232V152Z" fill="#333940"/>
<path d="M232 160H224V168H232V160Z" fill="#333940"/>
<path d="M232 168H224V176H232V168Z" fill="#333940"/>
<path d="M232 176H224V184H232V176Z" fill="#333940"/>
<path d="M232 184H224V192H232V184Z" fill="#333940"/>
<path d="M232 192H224V200H232V192Z" fill="#333940"/>
<path d="M232 200H224V208H232V200Z" fill="#333940"/>
<path d="M232 208H224V216H232V208Z" fill="#333940"/>
<path d="M232 216H224V224H232V216Z" fill="#333940"/>
<path d="M240 152H232V160H240V152Z" fill="#333940"/>
<path d="M240 160H232V168H240V160Z" fill="#333940"/>
<path d="M240 168H232V176H240V168Z" fill="#333940"/>
<path d="M240 176H232V184H240V176Z" fill="#333940"/>
<path d="M240 184H232V192H240V184Z" fill="#333940"/>
<path d="M240 192H232V200H240V192Z" fill="#333940"/>
<path d="M240 200H232V208H240V200Z" fill="#333940"/>
<path d="M240 208H232V216H240V208Z" fill="#333940"/>
<path d="M240 216H232V224H240V216Z" fill="#333940"/>
<path d="M248 160H240V168H248V160Z" fill="#333940"/>
<path d="M248 168H240V176H248V168Z" fill="#333940"/>
<path d="M248 176H240V184H248V176Z" fill="#333940"/>
<path d="M248 184H240V192H248V184Z" fill="#333940"/>
<path d="M248 192H240V200H248V192Z" fill="#333940"/>
<path d="M248 200H240V208H248V200Z" fill="#333940"/>
<path d="M248 208H240V216H248V208Z" fill="#333940"/>
<path d="M248 216H240V224H248V216Z" fill="#333940"/>
<path d="M256 176H248V184H256V176Z" fill="#333940"/>
<path d="M256 184H248V192H256V184Z" fill="#333940"/>
<path d="M256 192H248V200H256V192Z" fill="#333940"/>
<path d="M256 200H248V208H256V200Z" fill="#333940"/>
<path d="M256 208H248V216H256V208Z" fill="#333940"/>
<path d="M256 216H248V224H256V216Z" fill="#333940"/>
<path d="M88 224H80V232H88V224Z" fill="#333940"/>
<path d="M96 224H88V232H96V224Z" fill="#333940"/>
<path d="M104 224H96V232H104V224Z" fill="#333940"/>
<path d="M112 224H104V232H112V224Z" fill="#333940"/>
<path d="M120 224H112V232H120V224Z" fill="#333940"/>
<path d="M128 224H120V232H128V224Z" fill="#333940"/>
<path d="M136 224H128V232H136V224Z" fill="#333940"/>
<path d="M144 224H136V232H144V224Z" fill="#333940"/>
<path d="M152 224H144V232H152V224Z" fill="#333940"/>
<path d="M160 224H152V232H160V224Z" fill="#333940"/>
<path d="M168 224H160V232H168V224Z" fill="#333940"/>
<path d="M176 224H168V232H176V224Z" fill="#333940"/>
<path d="M184 224H176V232H184V224Z" fill="#333940"/>
<path d="M192 224H184V232H192V224Z" fill="#333940"/>
<path d="M200 224H192V232H200V224Z" fill="#333940"/>
<path d="M208 224H200V232H208V224Z" fill="#333940"/>
<path d="M216 224H208V232H216V224Z" fill="#333940"/>
<path d="M224 224H216V232H224V224Z" fill="#333940"/>
<path d="M232 224H224V232H232V224Z" fill="#333940"/>
<path d="M240 224H232V232H240V224Z" fill="#333940"/>
<path d="M248 224H240V232H248V224Z" fill="#333940"/>
<path d="M256 224H248V232H256V224Z" fill="#333940"/>
<path d="M88 232H80V240H88V232Z" fill="#333940"/>
<path d="M96 232H88V240H96V232Z" fill="#333940"/>
<path d="M104 232H96V240H104V232Z" fill="#333940"/>
<path d="M112 232H104V240H112V232Z" fill="#333940"/>
<path d="M120 232H112V240H120V232Z" fill="#333940"/>
<path d="M128 232H120V240H128V232Z" fill="#333940"/>
<path d="M136 232H128V240H136V232Z" fill="#333940"/>
<path d="M144 232H136V240H144V232Z" fill="#333940"/>
<path d="M152 232H144V240H152V232Z" fill="#333940"/>
<path d="M160 232H152V240H160V232Z" fill="#333940"/>
<path d="M168 232H160V240H168V232Z" fill="#333940"/>
<path d="M176 232H168V240H176V232Z" fill="#333940"/>
<path d="M184 232H176V240H184V232Z" fill="#333940"/>
<path d="M192 232H184V240H192V232Z" fill="#333940"/>
<path d="M200 232H192V240H200V232Z" fill="#333940"/>
<path d="M208 232H200V240H208V232Z" fill="#333940"/>
<path d="M216 232H208V240H216V232Z" fill="#333940"/>
<path d="M224 232H216V240H224V232Z" fill="#333940"/>
<path d="M232 232H224V240H232V232Z" fill="#333940"/>
<path d="M240 232H232V240H240V232Z" fill="#333940"/>
<path d="M248 232H240V240H248V232Z" fill="#333940"/>
<path d="M256 232H248V240H256V232Z" fill="#333940"/>
<path d="M88 240H80V248H88V240Z" fill="#333940"/>
<path d="M96 240H88V248H96V240Z" fill="#333940"/>
<path d="M104 240H96V248H104V240Z" fill="#333940"/>
<path d="M112 240H104V248H112V240Z" fill="#333940"/>
<path d="M120 240H112V248H120V240Z" fill="#333940"/>
<path d="M128 240H120V248H128V240Z" fill="#333940"/>
<path d="M136 240H128V248H136V240Z" fill="#333940"/>
<path d="M144 240H136V248H144V240Z" fill="#333940"/>
<path d="M152 240H144V248H152V240Z" fill="#333940"/>
<path d="M160 240H152V248H160V240Z" fill="#333940"/>
<path d="M168 240H160V248H168V240Z" fill="#333940"/>
<path d="M176 240H168V248H176V240Z" fill="#333940"/>
<path d="M184 240H176V248H184V240Z" fill="#333940"/>
<path d="M192 240H184V248H192V240Z" fill="#333940"/>
<path d="M200 240H192V248H200V240Z" fill="#333940"/>
<path d="M208 240H200V248H208V240Z" fill="#333940"/>
<path d="M216 240H208V248H216V240Z" fill="#333940"/>
<path d="M224 240H216V248H224V240Z" fill="#333940"/>
<path d="M232 240H224V248H232V240Z" fill="#333940"/>
<path d="M240 240H232V248H240V240Z" fill="#333940"/>
<path d="M248 240H240V248H248V240Z" fill="#333940"/>
<path d="M256 240H248V248H256V240Z" fill="#333940"/>
<path d="M88 248H80V256H88V248Z" fill="#333940"/>
<path d="M96 248H88V256H96V248Z" fill="#333940"/>
<path d="M104 248H96V256H104V248Z" fill="#333940"/>
<path d="M112 248H104V256H112V248Z" fill="#333940"/>
<path d="M120 248H112V256H120V248Z" fill="#333940"/>
<path d="M128 248H120V256H128V248Z" fill="#333940"/>
<path d="M136 248H128V256H136V248Z" fill="#333940"/>
<path d="M144 248H136V256H144V248Z" fill="#333940"/>
<path d="M152 248H144V256H152V248Z" fill="#333940"/>
<path d="M160 248H152V256H160V248Z" fill="#333940"/>
<path d="M168 248H160V256H168V248Z" fill="#333940"/>
<path d="M176 248H168V256H176V248Z" fill="#333940"/>
<path d="M184 248H176V256H184V248Z" fill="#333940"/>
<path d="M192 248H184V256H192V248Z" fill="#333940"/>
<path d="M200 248H192V256H200V248Z" fill="#333940"/>
<path d="M208 248H200V256H208V248Z" fill="#333940"/>
<path d="M216 248H208V256H216V248Z" fill="#333940"/>
<path d="M224 248H216V256H224V248Z" fill="#333940"/>
<path d="M232 248H224V256H232V248Z" fill="#333940"/>
<path d="M240 248H232V256H240V248Z" fill="#333940"/>
<path d="M248 248H240V256H248V248Z" fill="#333940"/>
<path d="M256 248H248V256H256V248Z" fill="#333940"/>
<path d="M88 256H80V264H88V256Z" fill="#333940"/>
<path d="M96 256H88V264H96V256Z" fill="#333940"/>
<path d="M104 256H96V264H104V256Z" fill="#333940"/>
<path d="M112 256H104V264H112V256Z" fill="#333940"/>
<path d="M120 256H112V264H120V256Z" fill="#333940"/>
<path d="M128 256H120V264H128V256Z" fill="#333940"/>
<path d="M136 256H128V264H136V256Z" fill="#333940"/>
<path d="M144 256H136V264H144V256Z" fill="#333940"/>
<path d="M152 256H144V264H152V256Z" fill="#333940"/>
<path d="M160 256H152V264H160V256Z" fill="#333940"/>
<path d="M168 256H160V264H168V256Z" fill="#333940"/>
<path d="M176 256H168V264H176V256Z" fill="#333940"/>
<path d="M184 256H176V264H184V256Z" fill="#333940"/>
<path d="M192 256H184V264H192V256Z" fill="#333940"/>
<path d="M200 256H192V264H200V256Z" fill="#333940"/>
<path d="M208 256H200V264H208V256Z" fill="#333940"/>
<path d="M216 256H208V264H216V256Z" fill="#333940"/>
<path d="M224 256H216V264H224V256Z" fill="#333940"/>
<path d="M232 256H224V264H232V256Z" fill="#333940"/>
<path d="M240 256H232V264H240V256Z" fill="#333940"/>
<path d="M248 256H240V264H248V256Z" fill="#333940"/>
<path d="M88 264H80V272H88V264Z" fill="#333940"/>
<path d="M96 264H88V272H96V264Z" fill="#333940"/>
<path d="M104 264H96V272H104V264Z" fill="#333940"/>
<path d="M112 264H104V272H112V264Z" fill="#333940"/>
<path d="M120 264H112V272H120V264Z" fill="#333940"/>
<path d="M128 264H120V272H128V264Z" fill="#333940"/>
<path d="M136 264H128V272H136V264Z" fill="#333940"/>
<path d="M144 264H136V272H144V264Z" fill="#333940"/>
<path d="M152 264H144V272H152V264Z" fill="#333940"/>
<path d="M160 264H152V272H160V264Z" fill="#333940"/>
<path d="M168 264H160V272H168V264Z" fill="#333940"/>
<path d="M176 264H168V272H176V264Z" fill="#333940"/>
<path d="M184 264H176V272H184V264Z" fill="#333940"/>
<path d="M192 264H184V272H192V264Z" fill="#333940"/>
<path d="M200 264H192V272H200V264Z" fill="#333940"/>
<path d="M208 264H200V272H208V264Z" fill="#333940"/>
<path d="M216 264H208V272H216V264Z" fill="#333940"/>
<path d="M224 264H216V272H224V264Z" fill="#333940"/>
<path d="M232 264H224V272H232V264Z" fill="#333940"/>
<path d="M240 264H232V272H240V264Z" fill="#333940"/>
<path d="M248 264H240V272H248V264Z" fill="#333940"/>
<path d="M256 264H248V272H256V264Z" fill="#333940"/>
<path d="M88 272H80V280H88V272Z" fill="#333940"/>
<path d="M96 272H88V280H96V272Z" fill="#333940"/>
<path d="M104 272H96V280H104V272Z" fill="#333940"/>
<path d="M112 272H104V280H112V272Z" fill="#333940"/>
<path d="M120 272H112V280H120V272Z" fill="#333940"/>
<path d="M128 272H120V280H128V272Z" fill="#333940"/>
<path d="M136 272H128V280H136V272Z" fill="#333940"/>
<path d="M144 272H136V280H144V272Z" fill="#333940"/>
<path d="M152 272H144V280H152V272Z" fill="#333940"/>
<path d="M160 272H152V280H160V272Z" fill="#333940"/>
<path d="M168 272H160V280H168V272Z" fill="#333940"/>
<path d="M176 272H168V280H176V272Z" fill="#333940"/>
<path d="M184 272H176V280H184V272Z" fill="#333940"/>
<path d="M192 272H184V280H192V272Z" fill="#333940"/>
<path d="M200 272H192V280H200V272Z" fill="#333940"/>
<path d="M208 272H200V280H208V272Z" fill="#333940"/>
<path d="M216 272H208V280H216V272Z" fill="#333940"/>
<path d="M224 272H216V280H224V272Z" fill="#333940"/>
<path d="M232 272H224V280H232V272Z" fill="#333940"/>
<path d="M240 272H232V280H240V272Z" fill="#333940"/>
<path d="M248 272H240V280H248V272Z" fill="#333940"/>
<path d="M256 256H248V264H256V256Z" fill="#333940"/>
<path d="M256 272H248V280H256V272Z" fill="#333940"/>
<path d="M88 280H80V288H88V280Z" fill="#333940"/>
<path d="M96 280H88V288H96V280Z" fill="#333940"/>
<path d="M104 280H96V288H104V280Z" fill="#333940"/>
<path d="M112 280H104V288H112V280Z" fill="#333940"/>
<path d="M120 280H112V288H120V280Z" fill="#333940"/>
<path d="M128 280H120V288H128V280Z" fill="#333940"/>
<path d="M136 280H128V288H136V280Z" fill="#333940"/>
<path d="M144 280H136V288H144V280Z" fill="#333940"/>
<path d="M152 280H144V288H152V280Z" fill="#333940"/>
<path d="M160 280H152V288H160V280Z" fill="#333940"/>
<path d="M168 280H160V288H168V280Z" fill="#333940"/>
<path d="M176 280H168V288H176V280Z" fill="#333940"/>
<path d="M184 280H176V288H184V280Z" fill="#333940"/>
<path d="M192 280H184V288H192V280Z" fill="#333940"/>
<path d="M200 280H192V288H200V280Z" fill="#333940"/>
<path d="M208 280H200V288H208V280Z" fill="#333940"/>
<path d="M216 280H208V288H216V280Z" fill="#333940"/>
<path d="M224 280H216V288H224V280Z" fill="#333940"/>
<path d="M232 280H224V288H232V280Z" fill="#333940"/>
<path d="M240 280H232V288H240V280Z" fill="#333940"/>
<path d="M248 280H240V288H248V280Z" fill="#333940"/>
<path d="M256 280H248V288H256V280Z" fill="#333940"/>
<path d="M88 288H80V296H88V288Z" fill="#333940"/>
<path d="M96 288H88V296H96V288Z" fill="#333940"/>
<path d="M104 288H96V296H104V288Z" fill="#333940"/>
<path d="M112 288H104V296H112V288Z" fill="#333940"/>
<path d="M120 288H112V296H120V288Z" fill="#333940"/>
<path d="M128 288H120V296H128V288Z" fill="#333940"/>
<path d="M136 288H128V296H136V288Z" fill="#333940"/>
<path d="M144 288H136V296H144V288Z" fill="#333940"/>
<path d="M152 288H144V296H152V288Z" fill="#333940"/>
<path d="M160 288H152V296H160V288Z" fill="#333940"/>
<path d="M168 288H160V296H168V288Z" fill="#333940"/>
<path d="M176 288H168V296H176V288Z" fill="#333940"/>
<path d="M184 288H176V296H184V288Z" fill="#333940"/>
<path d="M192 288H184V296H192V288Z" fill="#333940"/>
<path d="M200 288H192V296H200V288Z" fill="#333940"/>
<path d="M208 288H200V296H208V288Z" fill="#333940"/>
<path d="M216 288H208V296H216V288Z" fill="#333940"/>
<path d="M224 288H216V296H224V288Z" fill="#333940"/>
<path d="M232 288H224V296H232V288Z" fill="#333940"/>
<path d="M240 288H232V296H240V288Z" fill="#333940"/>
<path d="M248 288H240V296H248V288Z" fill="#333940"/>
<path d="M256 288H248V296H256V288Z" fill="#333940"/>
<path d="M88 296H80V304H88V296Z" fill="#333940"/>
<path d="M80 216H72V224H80V216Z" fill="#333940"/>
<path d="M80 224H72V232H80V224Z" fill="#333940"/>
<path d="M80 232H72V240H80V232Z" fill="#333940"/>
<path d="M80 240H72V248H80V240Z" fill="#333940"/>
<path d="M80 248H72V256H80V248Z" fill="#333940"/>
<path d="M80 256H72V264H80V256Z" fill="#333940"/>
<path d="M80 264H72V272H80V264Z" fill="#333940"/>
<path d="M80 272H72V280H80V272Z" fill="#333940"/>
<path d="M80 280H72V288H80V280Z" fill="#333940"/>
<path d="M80 288H72V296H80V288Z" fill="#333940"/>
<path d="M80 296H72V304H80V296Z" fill="#333940"/>
<path d="M72 280H64V288H72V280Z" fill="#333940"/>
<path d="M72 288H64V296H72V288Z" fill="#333940"/>
<path d="M72 296H64V304H72V296Z" fill="#333940"/>
<path d="M96 296H88V304H96V296Z" fill="#333940"/>
<path d="M104 296H96V304H104V296Z" fill="#333940"/>
<path d="M112 296H104V304H112V296Z" fill="#333940"/>
<path d="M120 296H112V304H120V296Z" fill="#333940"/>
<path d="M128 296H120V304H128V296Z" fill="#333940"/>
<path d="M136 296H128V304H136V296Z" fill="#333940"/>
<path d="M144 296H136V304H144V296Z" fill="#333940"/>
<path d="M152 296H144V304H152V296Z" fill="#333940"/>
<path d="M160 296H152V304H160V296Z" fill="#333940"/>
<path d="M168 296H160V304H168V296Z" fill="#333940"/>
<path d="M176 296H168V304H176V296Z" fill="#333940"/>
<path d="M184 296H176V304H184V296Z" fill="#333940"/>
<path d="M192 296H184V304H192V296Z" fill="#333940"/>
<path d="M200 296H192V304H200V296Z" fill="#333940"/>
<path d="M208 296H200V304H208V296Z" fill="#333940"/>
<path d="M216 296H208V304H216V296Z" fill="#333940"/>
<path d="M224 296H216V304H224V296Z" fill="#333940"/>
<path d="M232 296H224V304H232V296Z" fill="#333940"/>
<path d="M240 296H232V304H240V296Z" fill="#333940"/>
<path d="M248 296H240V304H248V296Z" fill="#333940"/>
<path d="M256 296H248V304H256V296Z" fill="#333940"/>
<path d="M264 288H256V296H264V288Z" fill="#333940"/>
<path d="M264 296H256V304H264V296Z" fill="#333940"/>
<path d="M88 304H80V312H88V304Z" fill="#333940"/>
<path d="M80 304H72V312H80V304Z" fill="#333940"/>
<path d="M72 304H64V312H72V304Z" fill="#333940"/>
<path d="M96 304H88V312H96V304Z" fill="#333940"/>
<path d="M104 304H96V312H104V304Z" fill="#333940"/>
<path d="M112 304H104V312H112V304Z" fill="#333940"/>
<path d="M120 304H112V312H120V304Z" fill="#333940"/>
<path d="M128 304H120V312H128V304Z" fill="#333940"/>
<path d="M136 304H128V312H136V304Z" fill="#333940"/>
<path d="M144 304H136V312H144V304Z" fill="#333940"/>
<path d="M152 304H144V312H152V304Z" fill="#333940"/>
<path d="M160 304H152V312H160V304Z" fill="#333940"/>
<path d="M168 304H160V312H168V304Z" fill="#333940"/>
<path d="M176 304H168V312H176V304Z" fill="#333940"/>
<path d="M184 304H176V312H184V304Z" fill="#333940"/>
<path d="M192 304H184V312H192V304Z" fill="#333940"/>
<path d="M200 304H192V312H200V304Z" fill="#333940"/>
<path d="M208 304H200V312H208V304Z" fill="#333940"/>
<path d="M216 304H208V312H216V304Z" fill="#333940"/>
<path d="M224 304H216V312H224V304Z" fill="#333940"/>
<path d="M232 304H224V312H232V304Z" fill="#333940"/>
<path d="M240 304H232V312H240V304Z" fill="#333940"/>
<path d="M248 304H240V312H248V304Z" fill="#333940"/>
<path d="M256 304H248V312H256V304Z" fill="#333940"/>
<path d="M264 304H256V312H264V304Z" fill="#333940"/>
<path d="M88 312H80V320H88V312Z" fill="#333940"/>
<path d="M80 312H72V320H80V312Z" fill="#333940"/>
<path d="M72 312H64V320H72V312Z" fill="#333940"/>
<path d="M96 312H88V320H96V312Z" fill="#333940"/>
<path d="M104 312H96V320H104V312Z" fill="#333940"/>
<path d="M112 312H104V320H112V312Z" fill="#333940"/>
<path d="M120 312H112V320H120V312Z" fill="#333940"/>
<path d="M128 312H120V320H128V312Z" fill="#333940"/>
<path d="M136 312H128V320H136V312Z" fill="#333940"/>
<path d="M144 312H136V320H144V312Z" fill="#333940"/>
<path d="M152 312H144V320H152V312Z" fill="#333940"/>
<path d="M160 312H152V320H160V312Z" fill="#333940"/>
<path d="M168 312H160V320H168V312Z" fill="#333940"/>
<path d="M176 312H168V320H176V312Z" fill="#333940"/>
<path d="M184 312H176V320H184V312Z" fill="#333940"/>
<path d="M192 312H184V320H192V312Z" fill="#333940"/>
<path d="M200 312H192V320H200V312Z" fill="#333940"/>
<path d="M208 312H200V320H208V312Z" fill="#333940"/>
<path d="M216 312H208V320H216V312Z" fill="#333940"/>
<path d="M224 312H216V320H224V312Z" fill="#333940"/>
<path d="M232 312H224V320H232V312Z" fill="#333940"/>
<path d="M240 312H232V320H240V312Z" fill="#333940"/>
<path d="M248 312H240V320H248V312Z" fill="#333940"/>
<path d="M256 312H248V320H256V312Z" fill="#333940"/>
<path d="M264 312H256V320H264V312Z" fill="#333940"/>
<path d="M88 320H80V328H88V320Z" fill="#333940"/>
<path d="M80 320H72V328H80V320Z" fill="#333940"/>
<path d="M72 320H64V328H72V320Z" fill="#333940"/>
<path d="M96 320H88V328H96V320Z" fill="#333940"/>
<path d="M104 320H96V328H104V320Z" fill="#333940"/>
<path d="M112 320H104V328H112V320Z" fill="#333940"/>
<path d="M120 320H112V328H120V320Z" fill="#333940"/>
<path d="M128 320H120V328H128V320Z" fill="#333940"/>
<path d="M136 320H128V328H136V320Z" fill="#333940"/>
<path d="M144 320H136V328H144V320Z" fill="#333940"/>
<path d="M152 320H144V328H152V320Z" fill="#333940"/>
<path d="M160 320H152V328H160V320Z" fill="#333940"/>
<path d="M168 320H160V328H168V320Z" fill="#333940"/>
<path d="M176 320H168V328H176V320Z" fill="#333940"/>
<path d="M184 320H176V328H184V320Z" fill="#333940"/>
<path d="M192 320H184V328H192V320Z" fill="#333940"/>
<path d="M200 320H192V328H200V320Z" fill="#333940"/>
<path d="M208 320H200V328H208V320Z" fill="#333940"/>
<path d="M216 320H208V328H216V320Z" fill="#333940"/>
<path d="M224 320H216V328H224V320Z" fill="#333940"/>
<path d="M232 320H224V328H232V320Z" fill="#333940"/>
<path d="M240 320H232V328H240V320Z" fill="#333940"/>
<path d="M248 320H240V328H248V320Z" fill="#333940"/>
<path d="M256 320H248V328H256V320Z" fill="#333940"/>
<path d="M264 320H256V328H264V320Z" fill="#333940"/>
<path d="M88 328H80V336H88V328Z" fill="#333940"/>
<path d="M80 328H72V336H80V328Z" fill="#333940"/>
<path d="M72 328H64V336H72V328Z" fill="#333940"/>
<path d="M96 328H88V336H96V328Z" fill="#333940"/>
<path d="M104 328H96V336H104V328Z" fill="#333940"/>
<path d="M112 328H104V336H112V328Z" fill="#333940"/>
<path d="M120 328H112V336H120V328Z" fill="#333940"/>
<path d="M128 328H120V336H128V328Z" fill="#333940"/>
<path d="M136 328H128V336H136V328Z" fill="#333940"/>
<path d="M144 328H136V336H144V328Z" fill="#333940"/>
<path d="M152 328H144V336H152V328Z" fill="#333940"/>
<path d="M160 328H152V336H160V328Z" fill="#333940"/>
<path d="M168 328H160V336H168V328Z" fill="#333940"/>
<path d="M176 328H168V336H176V328Z" fill="#333940"/>
<path d="M184 328H176V336H184V328Z" fill="#333940"/>
<path d="M192 328H184V336H192V328Z" fill="#333940"/>
<path d="M200 328H192V336H200V328Z" fill="#333940"/>
<path d="M208 328H200V336H208V328Z" fill="#333940"/>
<path d="M216 328H208V336H216V328Z" fill="#333940"/>
<path d="M224 328H216V336H224V328Z" fill="#333940"/>
<path d="M232 328H224V336H232V328Z" fill="#333940"/>
<path d="M240 328H232V336H240V328Z" fill="#333940"/>
<path d="M248 328H240V336H248V328Z" fill="#333940"/>
<path d="M256 328H248V336H256V328Z" fill="#333940"/>
<path d="M264 328H256V336H264V328Z" fill="#333940"/>
<path opacity="0.3" d="M232 152H224V160H232V152Z" fill="black"/>
<path opacity="0.3" d="M232 144H224V152H232V144Z" fill="black"/>
<path opacity="0.3" d="M240 160H232V168H240V160Z" fill="black"/>
<path opacity="0.3" d="M248 160H240V168H248V160Z" fill="black"/>
<path opacity="0.3" d="M248 168H240V176H248V168Z" fill="black"/>
<path opacity="0.3" d="M256 176H248V184H256V176Z" fill="black"/>
<path opacity="0.3" d="M256 184H248V192H256V184Z" fill="black"/>
<path opacity="0.3" d="M256 192H248V200H256V192Z" fill="black"/>
<path opacity="0.3" d="M256 200H248V208H256V200Z" fill="black"/>
<path opacity="0.3" d="M256 208H248V216H256V208Z" fill="black"/>
<path opacity="0.3" d="M256 216H248V224H256V216Z" fill="black"/>
<path opacity="0.3" d="M256 224H248V232H256V224Z" fill="black"/>
<path opacity="0.3" d="M256 232H248V240H256V232Z" fill="black"/>
<path opacity="0.3" d="M256 240H248V248H256V240Z" fill="black"/>
<path opacity="0.3" d="M256 248H248V256H256V248Z" fill="black"/>
<path opacity="0.3" d="M240 152H232V160H240V152Z" fill="black"/>
<path opacity="0.3" d="M224 144H216V152H224V144Z" fill="black"/>
<path opacity="0.3" d="M96 152H88V160H96V152Z" fill="black"/>
<path opacity="0.3" d="M104 144H96V152H104V144Z" fill="black"/>
<path opacity="0.3" d="M104 152H96V160H104V152Z" fill="black"/>
<path opacity="0.3" d="M112 152H104V160H112V152Z" fill="black"/>
<path opacity="0.3" d="M120 144H112V152H120V144Z" fill="black"/>
<path opacity="0.3" d="M128 144H120V152H128V144Z" fill="black"/>
<path opacity="0.3" d="M136 144H128V152H136V144Z" fill="black"/>
<path opacity="0.3" d="M128 152H120V160H128V152Z" fill="black"/>
<path opacity="0.3" d="M128 160H120V168H128V160Z" fill="black"/>
<path opacity="0.3" d="M144 136H136V144H144V136Z" fill="black"/>
<path opacity="0.3" d="M152 128H144V136H152V128Z" fill="black"/>
<path opacity="0.3" d="M136 136H128V144H136V136Z" fill="black"/>
<path opacity="0.3" d="M128 136H120V144H128V136Z" fill="black"/>
<path opacity="0.3" d="M112 144H104V152H112V144Z" fill="black"/>
<path opacity="0.3" d="M120 152H112V160H120V152Z" fill="black"/>
<path opacity="0.3" d="M112 160H104V168H112V160Z" fill="black"/>
<path opacity="0.3" d="M112 168H104V176H112V168Z" fill="black"/>
<path opacity="0.3" d="M112 176H104V184H112V176Z" fill="black"/>
<path opacity="0.3" d="M104 184H96V192H104V184Z" fill="black"/>
<path opacity="0.3" d="M104 176H96V184H104V176Z" fill="black"/>
<path opacity="0.3" d="M120 168H112V176H120V168Z" fill="black"/>
<path opacity="0.3" d="M120 160H112V168H120V160Z" fill="black"/>
<path opacity="0.3" d="M104 160H96V168H104V160Z" fill="black"/>
<path opacity="0.3" d="M104 168H96V176H104V168Z" fill="black"/>
<path opacity="0.3" d="M96 176H88V184H96V176Z" fill="black"/>
<path opacity="0.3" d="M96 184H88V192H96V184Z" fill="black"/>
<path opacity="0.3" d="M96 192H88V200H96V192Z" fill="black"/>
<path opacity="0.3" d="M104 256H96V264H104V256Z" fill="black"/>
<path opacity="0.3" d="M104 248H96V256H104V248Z" fill="black"/>
<path opacity="0.3" d="M104 264H96V272H104V264Z" fill="black"/>
<path opacity="0.3" d="M256 264H248V272H256V264Z" fill="black"/>
<path opacity="0.3" d="M256 256H248V264H256V256Z" fill="black"/>
<path opacity="0.3" d="M256 272H248V280H256V272Z" fill="black"/>
<path opacity="0.3" d="M264 288H256V296H264V288Z" fill="black"/>
<path opacity="0.3" d="M264 296H256V304H264V296Z" fill="black"/>
<path opacity="0.3" d="M264 304H256V312H264V304Z" fill="black"/>
<path opacity="0.3" d="M264 312H256V320H264V312Z" fill="black"/>
<path opacity="0.3" d="M264 320H256V328H264V320Z" fill="black"/>
<path opacity="0.3" d="M264 328H256V336H264V328Z" fill="black"/>
<path opacity="0.3" d="M256 280H248V288H256V280Z" fill="black"/>
<path opacity="0.3" d="M96 240H88V248H96V240Z" fill="black"/>
<path opacity="0.3" d="M96 232H88V240H96V232Z" fill="black"/>
<path opacity="0.3" d="M96 248H88V256H96V248Z" fill="black"/>
<path opacity="0.3" d="M96 256H88V264H96V256Z" fill="black"/>
<path opacity="0.3" d="M96 264H88V272H96V264Z" fill="black"/>
<path opacity="0.3" d="M96 160H88V168H96V160Z" fill="black"/>
<path opacity="0.3" d="M96 168H88V176H96V168Z" fill="black"/>
<path opacity="0.3" d="M88 176H80V184H88V176Z" fill="black"/>
<path opacity="0.3" d="M88 184H80V192H88V184Z" fill="black"/>
<path opacity="0.3" d="M88 192H80V200H88V192Z" fill="black"/>
<path opacity="0.3" d="M88 200H80V208H88V200Z" fill="black"/>
<path opacity="0.3" d="M96 200H88V208H96V200Z" fill="black"/>
<path opacity="0.3" d="M96 208H88V216H96V208Z" fill="black"/>
<path opacity="0.3" d="M96 216H88V224H96V216Z" fill="black"/>
<path opacity="0.3" d="M96 224H88V232H96V224Z" fill="black"/>
<path opacity="0.3" d="M104 240H96V248H104V240Z" fill="black"/>
<path opacity="0.3" d="M104 232H96V240H104V232Z" fill="black"/>
<path opacity="0.3" d="M104 224H96V232H104V224Z" fill="black"/>
<path opacity="0.3" d="M104 216H96V224H104V216Z" fill="black"/>
<path opacity="0.3" d="M104 208H96V216H104V208Z" fill="black"/>
<path opacity="0.3" d="M104 200H96V208H104V200Z" fill="black"/>
<path opacity="0.3" d="M104 192H96V200H104V192Z" fill="black"/>
<path opacity="0.3" d="M88 208H80V216H88V208Z" fill="black"/>
<path opacity="0.3" d="M88 216H80V224H88V216Z" fill="black"/>
<path opacity="0.3" d="M80 216H72V224H80V216Z" fill="black"/>
<path opacity="0.3" d="M80 224H72V232H80V224Z" fill="black"/>
<path opacity="0.3" d="M80 232H72V240H80V232Z" fill="black"/>
<path opacity="0.3" d="M80 240H72V248H80V240Z" fill="black"/>
<path opacity="0.3" d="M80 248H72V256H80V248Z" fill="black"/>
<path opacity="0.3" d="M80 256H72V264H80V256Z" fill="black"/>
<path opacity="0.3" d="M80 264H72V272H80V264Z" fill="black"/>
<path opacity="0.3" d="M80 272H72V280H80V272Z" fill="black"/>
<path opacity="0.3" d="M88 224H80V232H88V224Z" fill="black"/>
<path opacity="0.3" d="M88 232H80V240H88V232Z" fill="black"/>
<path opacity="0.3" d="M88 240H80V248H88V240Z" fill="black"/>
<path opacity="0.3" d="M88 248H80V256H88V248Z" fill="black"/>
<path opacity="0.3" d="M88 256H80V264H88V256Z" fill="black"/>
<path opacity="0.3" d="M88 264H80V272H88V264Z" fill="black"/>
<path opacity="0.3" d="M88 272H80V280H88V272Z" fill="black"/>
<path opacity="0.3" d="M96 272H88V280H96V272Z" fill="black"/>
<path opacity="0.3" d="M104 272H96V280H104V272Z" fill="black"/>
<path opacity="0.3" d="M104 280H96V288H104V280Z" fill="black"/>
<path opacity="0.3" d="M96 280H88V288H96V280Z" fill="black"/>
<path opacity="0.3" d="M88 280H80V288H88V280Z" fill="black"/>
<path opacity="0.3" d="M80 280H72V288H80V280Z" fill="black"/>
<path opacity="0.3" d="M72 280H64V288H72V280Z" fill="black"/>
<path opacity="0.3" d="M72 288H64V296H72V288Z" fill="black"/>
<path opacity="0.3" d="M80 288H72V296H80V288Z" fill="black"/>
<path opacity="0.3" d="M88 288H80V296H88V288Z" fill="black"/>
<path opacity="0.3" d="M96 288H88V296H96V288Z" fill="black"/>
<path opacity="0.3" d="M104 288H96V296H104V288Z" fill="black"/>
<path opacity="0.3" d="M112 288H104V296H112V288Z" fill="black"/>
<path opacity="0.3" d="M112 296H104V304H112V296Z" fill="black"/>
<path opacity="0.3" d="M112 304H104V312H112V304Z" fill="black"/>
<path opacity="0.3" d="M112 312H104V320H112V312Z" fill="black"/>
<path opacity="0.3" d="M104 304H96V312H104V304Z" fill="black"/>
<path opacity="0.3" d="M104 312H96V320H104V312Z" fill="black"/>
<path opacity="0.3" d="M96 312H88V320H96V312Z" fill="black"/>
<path opacity="0.3" d="M88 312H80V320H88V312Z" fill="black"/>
<path opacity="0.3" d="M80 312H72V320H80V312Z" fill="black"/>
<path opacity="0.3" d="M72 312H64V320H72V312Z" fill="black"/>
<path opacity="0.3" d="M112 320H104V328H112V320Z" fill="black"/>
<path opacity="0.3" d="M112 328H104V336H112V328Z" fill="black"/>
<path opacity="0.3" d="M104 328H96V336H104V328Z" fill="black"/>
<path opacity="0.3" d="M96 328H88V336H96V328Z" fill="black"/>
<path opacity="0.3" d="M88 328H80V336H88V328Z" fill="black"/>
<path opacity="0.3" d="M80 328H72V336H80V328Z" fill="black"/>
<path opacity="0.3" d="M72 328H64V336H72V328Z" fill="black"/>
<path opacity="0.3" d="M104 320H96V328H104V320Z" fill="black"/>
<path opacity="0.3" d="M96 320H88V328H96V320Z" fill="black"/>
<path opacity="0.3" d="M88 320H80V328H88V320Z" fill="black"/>
<path opacity="0.3" d="M80 320H72V328H80V320Z" fill="black"/>
<path opacity="0.3" d="M72 320H64V328H72V320Z" fill="black"/>
<path opacity="0.3" d="M96 304H88V312H96V304Z" fill="black"/>
<path opacity="0.3" d="M88 304H80V312H88V304Z" fill="black"/>
<path opacity="0.3" d="M80 304H72V312H80V304Z" fill="black"/>
<path opacity="0.3" d="M72 304H64V312H72V304Z" fill="black"/>
<path opacity="0.3" d="M104 296H96V304H104V296Z" fill="black"/>
<path opacity="0.3" d="M96 296H88V304H96V296Z" fill="black"/>
<path opacity="0.3" d="M88 296H80V304H88V296Z" fill="black"/>
<path opacity="0.3" d="M80 296H72V304H80V296Z" fill="black"/>
<path opacity="0.3" d="M72 296H64V304H72V296Z" fill="black"/>
<path d="M208 152H200V160H208V152Z" fill="#63676B"/>
<path d="M200 144H192V152H200V144Z" fill="#63676B"/>
<path d="M192 144H184V152H192V144Z" fill="#63676B"/>
<path d="M192 152H184V160H192V152Z" fill="#63676B"/>
<path d="M200 160H192V168H200V160Z" fill="#63676B"/>
<path d="M200 152H192V160H200V152Z" fill="#63676B"/>
<path d="M208 160H200V168H208V160Z" fill="#63676B"/>
<path d="M184 136H176V144H184V136Z" fill="#63676B"/>
<path d="M168 120H160V128H168V120Z" fill="black"/>
<path d="M176 120H168V128H176V120Z" fill="black"/>
<path d="M184 120H176V128H184V120Z" fill="black"/>
<path d="M192 120H184V128H192V120Z" fill="black"/>
<path d="M200 120H192V128H200V120Z" fill="black"/>
<path d="M208 128H200V136H208V128Z" fill="black"/>
<path d="M224 136H216V144H224V136Z" fill="black"/>
<path d="M232 136H224V144H232V136Z" fill="black"/>
<path d="M240 144H232V152H240V144Z" fill="black"/>
<path d="M248 152H240V160H248V152Z" fill="black"/>
<path d="M256 160H248V168H256V160Z" fill="black"/>
<path d="M256 168H248V176H256V168Z" fill="black"/>
<path d="M264 176H256V184H264V176Z" fill="black"/>
<path d="M264 184H256V192H264V184Z" fill="black"/>
<path d="M264 192H256V200H264V192Z" fill="black"/>
<path d="M264 200H256V208H264V200Z" fill="black"/>
<path d="M264 208H256V216H264V208Z" fill="black"/>
<path d="M264 216H256V224H264V216Z" fill="black"/>
<path d="M264 224H256V232H264V224Z" fill="black"/>
<path d="M264 232H256V240H264V232Z" fill="black"/>
<path d="M264 240H256V248H264V240Z" fill="black"/>
<path d="M264 248H256V256H264V248Z" fill="black"/>
<path d="M80 176H72V184H80V176Z" fill="black"/>
<path d="M80 184H72V192H80V184Z" fill="black"/>
<path d="M80 192H72V200H80V192Z" fill="black"/>
<path d="M80 200H72V208H80V200Z" fill="black"/>
<path d="M80 208H72V216H80V208Z" fill="black"/>
<path d="M72 216H64V224H72V216Z" fill="black"/>
<path d="M72 224H64V232H72V224Z" fill="black"/>
<path d="M72 232H64V240H72V232Z" fill="black"/>
<path d="M72 240H64V248H72V240Z" fill="black"/>
<path d="M72 248H64V256H72V248Z" fill="black"/>
<path d="M264 256H256V264H264V256Z" fill="black"/>
<path d="M72 256H64V264H72V256Z" fill="black"/>
<path d="M264 264H256V272H264V264Z" fill="black"/>
<path d="M264 272H256V280H264V272Z" fill="black"/>
<path d="M264 280H256V288H264V280Z" fill="black"/>
<path d="M272 288H264V296H272V288Z" fill="black"/>
<path d="M272 296H264V304H272V296Z" fill="black"/>
<path d="M64 296H56V304H64V296Z" fill="black"/>
<path d="M272 304H264V312H272V304Z" fill="black"/>
<path d="M64 304H56V312H64V304Z" fill="black"/>
<path d="M272 312H264V320H272V312Z" fill="black"/>
<path d="M272 320H264V328H272V320Z" fill="black"/>
<path d="M272 328H264V336H272V328Z" fill="black"/>
<path d="M64 312H56V320H64V312Z" fill="black"/>
<path d="M64 320H56V328H64V320Z" fill="black"/>
<path d="M64 328H56V336H64V328Z" fill="black"/>
<path d="M64 288H56V296H64V288Z" fill="black"/>
<path d="M64 280H56V288H64V280Z" fill="black"/>
<path d="M72 264H64V272H72V264Z" fill="black"/>
<path d="M72 272H64V280H72V272Z" fill="black"/>
<path d="M216 128H208V136H216V128Z" fill="black"/>
<path d="M104 144H96V152H104V144Z" fill="black"/>
<path d="M96 152H88V160H96V152Z" fill="black"/>
<path d="M88 160H80V168H88V160Z" fill="black"/>
<path d="M88 168H80V176H88V168Z" fill="black"/>
<path d="M160 120H152V128H160V120Z" fill="black"/>
<path d="M152 120H144V128H152V120Z" fill="black"/>
<path d="M144 128H136V136H144V128Z" fill="black"/>
<path d="M136 128H128V136H136V128Z" fill="black"/>
<path d="M128 128H120V136H128V128Z" fill="black"/>
<path d="M120 136H112V144H120V136Z" fill="black"/>
<path d="M112 136H104V144H112V136Z" fill="black"/>
<path d="M128 168H120V176H128V168Z" fill="#EBE4DA"/>
<path d="M136 168H128V176H136V168Z" fill="#EBE4DA"/>
<path d="M144 168H136V176H144V168Z" fill="#EBE4DA"/>
<path d="M152 168H144V176H152V168Z" fill="#EBE4DA"/>
<path d="M160 168H152V176H160V168Z" fill="#EBE4DA"/>
<path d="M128 176H120V184H128V176Z" fill="#EBE4DA"/>
<path d="M136 176H128V184H136V176Z" fill="#EBE4DA"/>
<path d="M144 176H136V184H144V176Z" fill="#EBE4DA"/>
<path d="M152 176H144V184H152V176Z" fill="#EBE4DA"/>
<path d="M128 184H120V192H128V184Z" fill="#EBE4DA"/>
<path d="M136 184H128V192H136V184Z" fill="#EBE4DA"/>
<path d="M144 184H136V192H144V184Z" fill="#EBE4DA"/>
<path d="M152 184H144V192H152V184Z" fill="#EBE4DA"/>
<path d="M128 192H120V200H128V192Z" fill="#EBE4DA"/>
<path d="M136 192H128V200H136V192Z" fill="#EBE4DA"/>
<path d="M144 192H136V200H144V192Z" fill="#EBE4DA"/>
<path d="M152 192H144V200H152V192Z" fill="#EBE4DA"/>
<path d="M128 200H120V208H128V200Z" fill="#EBE4DA"/>
<path d="M136 200H128V208H136V200Z" fill="#EBE4DA"/>
<path d="M144 200H136V208H144V200Z" fill="#EBE4DA"/>
<path d="M152 200H144V208H152V200Z" fill="#EBE4DA"/>
<path d="M128 208H120V216H128V208Z" fill="#EBE4DA"/>
<path d="M136 208H128V216H136V208Z" fill="#EBE4DA"/>
<path d="M144 208H136V216H144V208Z" fill="#EBE4DA"/>
<path d="M152 208H144V216H152V208Z" fill="#EBE4DA"/>
<path d="M128 216H120V224H128V216Z" fill="#EBE4DA"/>
<path d="M136 216H128V224H136V216Z" fill="#EBE4DA"/>
<path d="M144 216H136V224H144V216Z" fill="#EBE4DA"/>
<path d="M152 216H144V224H152V216Z" fill="#EBE4DA"/>
<path d="M128 224H120V232H128V224Z" fill="#EBE4DA"/>
<path d="M136 224H128V232H136V224Z" fill="#EBE4DA"/>
<path d="M144 224H136V232H144V224Z" fill="#EBE4DA"/>
<path d="M152 224H144V232H152V224Z" fill="#EBE4DA"/>
<path d="M128 232H120V240H128V232Z" fill="#EBE4DA"/>
<path d="M120 184H112V192H120V184Z" fill="#EBE4DA"/>
<path d="M120 192H112V200H120V192Z" fill="#EBE4DA"/>
<path d="M120 200H112V208H120V200Z" fill="#EBE4DA"/>
<path d="M120 208H112V216H120V208Z" fill="#EBE4DA"/>
<path d="M120 216H112V224H120V216Z" fill="#EBE4DA"/>
<path d="M120 224H112V232H120V224Z" fill="#EBE4DA"/>
<path d="M120 232H112V240H120V232Z" fill="#EBE4DA"/>
<path d="M136 232H128V240H136V232Z" fill="#EBE4DA"/>
<path d="M144 232H136V240H144V232Z" fill="#EBE4DA"/>
<path d="M152 232H144V240H152V232Z" fill="#EBE4DA"/>
<path d="M128 240H120V248H128V240Z" fill="#EBE4DA"/>
<path d="M136 240H128V248H136V240Z" fill="#EBE4DA"/>
<path d="M144 240H136V248H144V240Z" fill="#EBE4DA"/>
<path d="M152 240H144V248H152V240Z" fill="#EBE4DA"/>
<path d="M160 176H152V184H160V176Z" fill="#EBE4DA"/>
<path d="M160 184H152V192H160V184Z" fill="#EBE4DA"/>
<path d="M168 184H160V192H168V184Z" fill="#EBE4DA"/>
<path d="M160 192H152V200H160V192Z" fill="#EBE4DA"/>
<path d="M168 192H160V200H168V192Z" fill="#EBE4DA"/>
<path d="M176 192H168V200H176V192Z" fill="#EBE4DA"/>
<path d="M160 200H152V208H160V200Z" fill="#EBE4DA"/>
<path d="M168 200H160V208H168V200Z" fill="#EBE4DA"/>
<path d="M176 200H168V208H176V200Z" fill="#EBE4DA"/>
<path d="M184 200H176V208H184V200Z" fill="#EBE4DA"/>
<path d="M192 200H184V208H192V200Z" fill="#EBE4DA"/>
<path d="M200 200H192V208H200V200Z" fill="#EBE4DA"/>
<path d="M200 192H192V200H200V192Z" fill="#EBE4DA"/>
<path d="M208 192H200V200H208V192Z" fill="#EBE4DA"/>
<path d="M208 184H200V192H208V184Z" fill="#EBE4DA"/>
<path d="M216 184H208V192H216V184Z" fill="#EBE4DA"/>
<path d="M224 184H216V192H224V184Z" fill="#EBE4DA"/>
<path d="M232 184H224V192H232V184Z" fill="#EBE4DA"/>
<path d="M240 184H232V192H240V184Z" fill="#EBE4DA"/>
<path d="M240 192H232V200H240V192Z" fill="#EBE4DA"/>
<path d="M232 192H224V200H232V192Z" fill="#EBE4DA"/>
<path d="M224 192H216V200H224V192Z" fill="#EBE4DA"/>
<path d="M216 192H208V200H216V192Z" fill="#EBE4DA"/>
<path d="M208 200H200V208H208V200Z" fill="#EBE4DA"/>
<path d="M216 200H208V208H216V200Z" fill="#EBE4DA"/>
<path d="M224 200H216V208H224V200Z" fill="#EBE4DA"/>
<path d="M232 200H224V208H232V200Z" fill="#EBE4DA"/>
<path d="M240 200H232V208H240V200Z" fill="#EBE4DA"/>
<path d="M240 208H232V216H240V208Z" fill="#EBE4DA"/>
<path d="M232 208H224V216H232V208Z" fill="#EBE4DA"/>
<path d="M224 208H216V216H224V208Z" fill="#EBE4DA"/>
<path d="M216 208H208V216H216V208Z" fill="#EBE4DA"/>
<path d="M208 208H200V216H208V208Z" fill="#EBE4DA"/>
<path d="M200 208H192V216H200V208Z" fill="#EBE4DA"/>
<path d="M192 208H184V216H192V208Z" fill="#EBE4DA"/>
<path d="M184 208H176V216H184V208Z" fill="#EBE4DA"/>
<path d="M176 208H168V216H176V208Z" fill="#EBE4DA"/>
<path d="M168 208H160V216H168V208Z" fill="#EBE4DA"/>
<path d="M160 208H152V216H160V208Z" fill="#EBE4DA"/>
<path d="M240 216H232V224H240V216Z" fill="#EBE4DA"/>
<path d="M232 216H224V224H232V216Z" fill="#EBE4DA"/>
<path d="M224 216H216V224H224V216Z" fill="#EBE4DA"/>
<path d="M216 216H208V224H216V216Z" fill="#EBE4DA"/>
<path d="M208 216H200V224H208V216Z" fill="#EBE4DA"/>
<path d="M200 216H192V224H200V216Z" fill="#EBE4DA"/>
<path d="M192 216H184V224H192V216Z" fill="#EBE4DA"/>
<path d="M184 216H176V224H184V216Z" fill="#EBE4DA"/>
<path d="M176 216H168V224H176V216Z" fill="#EBE4DA"/>
<path d="M168 216H160V224H168V216Z" fill="#EBE4DA"/>
<path d="M160 216H152V224H160V216Z" fill="#EBE4DA"/>
<path d="M240 224H232V232H240V224Z" fill="#EBE4DA"/>
<path d="M232 224H224V232H232V224Z" fill="#EBE4DA"/>
<path d="M224 224H216V232H224V224Z" fill="#EBE4DA"/>
<path d="M216 224H208V232H216V224Z" fill="#EBE4DA"/>
<path d="M208 224H200V232H208V224Z" fill="#EBE4DA"/>
<path d="M200 224H192V232H200V224Z" fill="#EBE4DA"/>
<path d="M192 224H184V232H192V224Z" fill="#EBE4DA"/>
<path d="M184 224H176V232H184V224Z" fill="#EBE4DA"/>
<path d="M176 224H168V232H176V224Z" fill="#EBE4DA"/>
<path d="M168 224H160V232H168V224Z" fill="#EBE4DA"/>
<path d="M160 224H152V232H160V224Z" fill="#EBE4DA"/>
<path d="M240 232H232V240H240V232Z" fill="#EBE4DA"/>
<path d="M232 232H224V240H232V232Z" fill="#EBE4DA"/>
<path d="M224 232H216V240H224V232Z" fill="#EBE4DA"/>
<path d="M216 232H208V240H216V232Z" fill="#EBE4DA"/>
<path d="M208 232H200V240H208V232Z" fill="#EBE4DA"/>
<path d="M200 232H192V240H200V232Z" fill="#EBE4DA"/>
<path d="M192 232H184V240H192V232Z" fill="#EBE4DA"/>
<path d="M184 232H176V240H184V232Z" fill="#EBE4DA"/>
<path d="M176 232H168V240H176V232Z" fill="#EBE4DA"/>
<path d="M168 232H160V240H168V232Z" fill="#EBE4DA"/>
<path d="M160 232H152V240H160V232Z" fill="#EBE4DA"/>
<path d="M240 240H232V248H240V240Z" fill="#EBE4DA"/>
<path d="M232 240H224V248H232V240Z" fill="#EBE4DA"/>
<path d="M224 240H216V248H224V240Z" fill="#EBE4DA"/>
<path d="M216 240H208V248H216V240Z" fill="#EBE4DA"/>
<path d="M208 240H200V248H208V240Z" fill="#EBE4DA"/>
<path d="M200 240H192V248H200V240Z" fill="#EBE4DA"/>
<path d="M192 240H184V248H192V240Z" fill="#EBE4DA"/>
<path d="M184 240H176V248H184V240Z" fill="#EBE4DA"/>
<path d="M176 240H168V248H176V240Z" fill="#EBE4DA"/>
<path d="M168 240H160V248H168V240Z" fill="#EBE4DA"/>
<path d="M160 240H152V248H160V240Z" fill="#EBE4DA"/>
<path d="M136 248H128V256H136V248Z" fill="#EBE4DA"/>
<path d="M144 248H136V256H144V248Z" fill="#EBE4DA"/>
<path d="M152 248H144V256H152V248Z" fill="#EBE4DA"/>
<path d="M232 248H224V256H232V248Z" fill="#EBE4DA"/>
<path d="M224 248H216V256H224V248Z" fill="#EBE4DA"/>
<path d="M216 248H208V256H216V248Z" fill="#EBE4DA"/>
<path d="M208 248H200V256H208V248Z" fill="#EBE4DA"/>
<path d="M200 248H192V256H200V248Z" fill="#EBE4DA"/>
<path d="M192 248H184V256H192V248Z" fill="#EBE4DA"/>
<path d="M184 248H176V256H184V248Z" fill="#EBE4DA"/>
<path d="M176 248H168V256H176V248Z" fill="#EBE4DA"/>
<path d="M168 248H160V256H168V248Z" fill="#EBE4DA"/>
<path d="M160 248H152V256H160V248Z" fill="#EBE4DA"/>
<path d="M152 256H144V264H152V256Z" fill="#EBE4DA"/>
<path d="M224 256H216V264H224V256Z" fill="#EBE4DA"/>
<path d="M216 256H208V264H216V256Z" fill="#EBE4DA"/>
<path d="M208 256H200V264H208V256Z" fill="#EBE4DA"/>
<path d="M200 256H192V264H200V256Z" fill="#EBE4DA"/>
<path d="M192 256H184V264H192V256Z" fill="#EBE4DA"/>
<path d="M184 256H176V264H184V256Z" fill="#EBE4DA"/>
<path d="M176 256H168V264H176V256Z" fill="#EBE4DA"/>
<path d="M200 264H192V272H200V264Z" fill="#EBE4DA"/>
<path d="M192 264H184V272H192V264Z" fill="#EBE4DA"/>
<path d="M184 264H176V272H184V264Z" fill="#EBE4DA"/>
<path d="M176 264H168V272H176V264Z" fill="#EBE4DA"/>
<path d="M168 256H160V264H168V256Z" fill="#EBE4DA"/>
<path d="M160 256H152V264H160V256Z" fill="#EBE4DA"/>
<path d="M168 176H160V184H168V176Z" fill="#EBE4DA"/>
<path d="M176 184H168V192H176V184Z" fill="#EBE4DA"/>
<path d="M184 192H176V200H184V192Z" fill="#EBE4DA"/>
<path d="M192 192H184V200H192V192Z" fill="#EBE4DA"/>
<path d="M200 184H192V192H200V184Z" fill="#EBE4DA"/>
<path d="M208 176H200V184H208V176Z" fill="#EBE4DA"/>
<path d="M216 176H208V184H216V176Z" fill="#EBE4DA"/>
<path d="M224 168H216V176H224V168Z" fill="#EBE4DA"/>
<path d="M216 168H208V176H216V168Z" fill="#EBE4DA"/>
<path d="M232 168H224V176H232V168Z" fill="#EBE4DA"/>
<path d="M240 176H232V184H240V176Z" fill="#EBE4DA"/>
<path d="M240 168H232V176H240V168Z" fill="#EBE4DA"/>
<path d="M248 168H240V176H248V168Z" fill="#EBE4DA"/>
<path d="M256 176H248V184H256V176Z" fill="#EBE4DA"/>
<path d="M248 176H240V184H248V176Z" fill="#EBE4DA"/>
<path d="M248 184H240V192H248V184Z" fill="#EBE4DA"/>
<path d="M256 184H248V192H256V184Z" fill="#EBE4DA"/>
<path d="M256 192H248V200H256V192Z" fill="#EBE4DA"/>
<path d="M248 192H240V200H248V192Z" fill="#EBE4DA"/>
<path d="M248 200H240V208H248V200Z" fill="#EBE4DA"/>
<path d="M256 200H248V208H256V200Z" fill="#EBE4DA"/>
<path d="M256 208H248V216H256V208Z" fill="#EBE4DA"/>
<path d="M248 208H240V216H248V208Z" fill="#EBE4DA"/>
<path d="M248 216H240V224H248V216Z" fill="#EBE4DA"/>
<path d="M256 216H248V224H256V216Z" fill="#EBE4DA"/>
<path d="M256 224H248V232H256V224Z" fill="#EBE4DA"/>
<path d="M248 224H240V232H248V224Z" fill="#EBE4DA"/>
<path d="M248 232H240V240H248V232Z" fill="#EBE4DA"/>
<path d="M256 232H248V240H256V232Z" fill="#EBE4DA"/>
<path d="M256 240H248V248H256V240Z" fill="#EBE4DA"/>
<path d="M248 240H240V248H248V240Z" fill="#EBE4DA"/>
<path d="M248 248H240V256H248V248Z" fill="#EBE4DA"/>
<path d="M240 256H232V264H240V256Z" fill="#EBE4DA"/>
<path d="M256 248H248V256H256V248Z" fill="#EBE4DA"/>
<path d="M232 176H224V184H232V176Z" fill="#EBE4DA"/>
<path d="M224 176H216V184H224V176Z" fill="#EBE4DA"/>
<path d="M120 176H112V184H120V176Z" fill="#EBE4DA"/>
<path d="M112 184H104V192H112V184Z" fill="#EBE4DA"/>
<path d="M104 192H96V200H104V192Z" fill="#EBE4DA"/>
<path d="M112 192H104V200H112V192Z" fill="#EBE4DA"/>
<path d="M112 200H104V208H112V200Z" fill="#EBE4DA"/>
<path d="M112 208H104V216H112V208Z" fill="#EBE4DA"/>
<path d="M112 216H104V224H112V216Z" fill="#EBE4DA"/>
<path d="M104 200H96V208H104V200Z" fill="#EBE4DA"/>
<path d="M96 200H88V208H96V200Z" fill="#EBE4DA"/>
<path d="M96 208H88V216H96V208Z" fill="#EBE4DA"/>
<path d="M96 216H88V224H96V216Z" fill="#EBE4DA"/>
<path d="M96 224H88V232H96V224Z" fill="#EBE4DA"/>
<path d="M104 232H96V240H104V232Z" fill="#EBE4DA"/>
<path d="M104 240H96V248H104V240Z" fill="#EBE4DA"/>
<path d="M112 248H104V256H112V248Z" fill="#EBE4DA"/>
<path d="M120 256H112V264H120V256Z" fill="#EBE4DA"/>
<path d="M128 256H120V264H128V256Z" fill="#EBE4DA"/>
<path d="M136 264H128V272H136V264Z" fill="#EBE4DA"/>
<path d="M144 264H136V272H144V264Z" fill="#EBE4DA"/>
<path d="M152 272H144V280H152V272Z" fill="#EBE4DA"/>
<path d="M160 272H152V280H160V272Z" fill="#EBE4DA"/>
<path d="M216 272H208V280H216V272Z" fill="#EBE4DA"/>
<path d="M232 264H224V272H232V264Z" fill="#EBE4DA"/>
<path d="M248 256H240V264H248V256Z" fill="#EBE4DA"/>
<path d="M104 208H96V216H104V208Z" fill="#EBE4DA"/>
<path d="M104 216H96V224H104V216Z" fill="#EBE4DA"/>
<path d="M104 224H96V232H104V224Z" fill="#EBE4DA"/>
<path d="M112 224H104V232H112V224Z" fill="#EBE4DA"/>
<path d="M112 232H104V240H112V232Z" fill="#EBE4DA"/>
<path d="M120 240H112V248H120V240Z" fill="#EBE4DA"/>
<path d="M112 240H104V248H112V240Z" fill="#EBE4DA"/>
<path d="M120 248H112V256H120V248Z" fill="#EBE4DA"/>
<path d="M128 248H120V256H128V248Z" fill="#EBE4DA"/>
<path d="M136 256H128V264H136V256Z" fill="#EBE4DA"/>
<path d="M144 256H136V264H144V256Z" fill="#EBE4DA"/>
<path d="M152 264H144V272H152V264Z" fill="#EBE4DA"/>
<path d="M160 264H152V272H160V264Z" fill="#EBE4DA"/>
<path d="M168 264H160V272H168V264Z" fill="#EBE4DA"/>
<path d="M176 272H168V280H176V272Z" fill="#EBE4DA"/>
<path d="M184 272H176V280H184V272Z" fill="#EBE4DA"/>
<path d="M192 272H184V280H192V272Z" fill="#EBE4DA"/>
<path d="M200 272H192V280H200V272Z" fill="#EBE4DA"/>
<path d="M208 272H200V280H208V272Z" fill="#EBE4DA"/>
<path d="M168 272H160V280H168V272Z" fill="#EBE4DA"/>
<path d="M208 264H200V272H208V264Z" fill="#EBE4DA"/>
<path d="M216 264H208V272H216V264Z" fill="#EBE4DA"/>
<path d="M224 264H216V272H224V264Z" fill="#EBE4DA"/>
<path d="M232 256H224V264H232V256Z" fill="#EBE4DA"/>
<path d="M240 248H232V256H240V248Z" fill="#EBE4DA"/>
<path opacity="0.3" d="M240 264H232V272H240V264Z" fill="black"/>
<path opacity="0.3" d="M248 264H240V272H248V264Z" fill="black"/>
<path opacity="0.3" d="M224 272H216V280H224V272Z" fill="black"/>
<path opacity="0.3" d="M232 272H224V280H232V272Z" fill="black"/>
<path opacity="0.3" d="M176 280H168V288H176V280Z" fill="black"/>
<path opacity="0.3" d="M184 280H176V288H184V280Z" fill="black"/>
<path opacity="0.3" d="M192 280H184V288H192V280Z" fill="black"/>
<path opacity="0.3" d="M200 280H192V288H200V280Z" fill="black"/>
<path opacity="0.3" d="M112 256H104V264H112V256Z" fill="black"/>
<path opacity="0.3" d="M120 264H112V272H120V264Z" fill="black"/>
<path opacity="0.3" d="M128 264H120V272H128V264Z" fill="black"/>
<path opacity="0.3" d="M136 272H128V280H136V272Z" fill="black"/>
<path opacity="0.3" d="M144 272H136V280H144V272Z" fill="black"/>
<path opacity="0.3" d="M152 280H144V288H152V280Z" fill="black"/>
<path opacity="0.3" d="M160 280H152V288H160V280Z" fill="black"/>
<path opacity="0.3" d="M168 280H160V288H168V280Z" fill="black"/>
<path opacity="0.3" d="M208 280H200V288H208V280Z" fill="black"/>
<path opacity="0.3" d="M216 280H208V288H216V280Z" fill="black"/>
<path opacity="0.3" d="M120 176H112V184H120V176Z" fill="black"/>
<path opacity="0.3" d="M128 168H120V176H128V168Z" fill="black"/>
<path opacity="0.3" d="M112 184H104V192H112V184Z" fill="black"/>
<path opacity="0.3" d="M256 248H248V256H256V248Z" fill="black"/>
<path opacity="0.3" d="M240 256H232V264H240V256Z" fill="black"/>
<path opacity="0.3" d="M224 264H216V272H224V264Z" fill="black"/>
<path opacity="0.3" d="M208 272H200V280H208V272Z" fill="black"/>
<path opacity="0.3" d="M216 272H208V280H216V272Z" fill="black"/>
<path opacity="0.3" d="M232 264H224V272H232V264Z" fill="black"/>
<path opacity="0.3" d="M248 256H240V264H248V256Z" fill="black"/>
<path opacity="0.3" d="M168 272H160V280H168V272Z" fill="black"/>
<path opacity="0.3" d="M176 272H168V280H176V272Z" fill="black"/>
<path opacity="0.3" d="M184 272H176V280H184V272Z" fill="black"/>
<path opacity="0.3" d="M192 272H184V280H192V272Z" fill="black"/>
<path opacity="0.3" d="M200 272H192V280H200V272Z" fill="black"/>
<path opacity="0.3" d="M152 264H144V272H152V264Z" fill="black"/>
<path opacity="0.3" d="M256 176H248V184H256V176Z" fill="black"/>
<path opacity="0.3" d="M104 192H96V200H104V192Z" fill="black"/>
<path opacity="0.3" d="M96 200H88V208H96V200Z" fill="black"/>
<path opacity="0.3" d="M96 208H88V216H96V208Z" fill="black"/>
<path opacity="0.3" d="M96 216H88V224H96V216Z" fill="black"/>
<path opacity="0.3" d="M96 224H88V232H96V224Z" fill="black"/>
<path opacity="0.3" d="M104 232H96V240H104V232Z" fill="black"/>
<path opacity="0.3" d="M104 240H96V248H104V240Z" fill="black"/>
<path opacity="0.3" d="M112 248H104V256H112V248Z" fill="black"/>
<path opacity="0.3" d="M120 256H112V264H120V256Z" fill="black"/>
<path opacity="0.3" d="M128 256H120V264H128V256Z" fill="black"/>
<path opacity="0.3" d="M136 264H128V272H136V264Z" fill="black"/>
<path opacity="0.3" d="M144 264H136V272H144V264Z" fill="black"/>
<path opacity="0.3" d="M160 272H152V280H160V272Z" fill="black"/>
<path opacity="0.3" d="M152 272H144V280H152V272Z" fill="black"/>
<path opacity="0.3" d="M104 200H96V208H104V200Z" fill="black"/>
<path opacity="0.3" d="M104 208H96V216H104V208Z" fill="black"/>
<path opacity="0.3" d="M104 216H96V224H104V216Z" fill="black"/>
<path opacity="0.3" d="M104 224H96V232H104V224Z" fill="black"/>
<path opacity="0.3" d="M112 232H104V240H112V232Z" fill="black"/>
<path opacity="0.3" d="M112 240H104V248H112V240Z" fill="black"/>
<path opacity="0.3" d="M120 240H112V248H120V240Z" fill="black"/>
<path opacity="0.3" d="M120 248H112V256H120V248Z" fill="black"/>
<path opacity="0.3" d="M136 256H128V264H136V256Z" fill="black"/>
<path d="M248 168H240V176H248V168Z" fill="#F5EFE6"/>
<path d="M256 240H248V248H256V240Z" fill="#F5EFE6"/>
<path d="M240 168H232V176H240V168Z" fill="#F5EFE6"/>
<path d="M232 168H224V176H232V168Z" fill="#F5EFE6"/>
<path d="M144 168H136V176H144V168Z" fill="#F5EFE6"/>
<path d="M160 168H152V176H160V168Z" fill="#F5EFE6"/>
<path d="M152 168H144V176H152V168Z" fill="#F5EFE6"/>
</g>
<g clip-path="url(#clip1_849_309048)">
<path opacity="0.3" d="M168 192H160V200H168V192Z" fill="black"/>
<path opacity="0.3" d="M168 200H160V208H168V200Z" fill="black"/>
<path opacity="0.3" d="M168 224H160V232H168V224Z" fill="black"/>
<path opacity="0.3" d="M208 200H200V208H208V200Z" fill="black"/>
<path opacity="0.3" d="M208 192H200V200H208V192Z" fill="black"/>
<path d="M168 208H160V216H168V208Z" fill="#5C5D66"/>
<path d="M168 216H160V224H168V216Z" fill="#5C5D66"/>
<path d="M120 224H112V232H120V224Z" fill="#5C5D66"/>
<path d="M128 224H120V232H128V224Z" fill="#5C5D66"/>
<path d="M136 224H128V232H136V224Z" fill="#5C5D66"/>
<path d="M144 224H136V232H144V224Z" fill="#5C5D66"/>
<path d="M152 224H144V232H152V224Z" fill="#5C5D66"/>
<path d="M160 224H152V232H160V224Z" fill="#5C5D66"/>
<path d="M160 200H152V208H160V200Z" fill="#5C5D66"/>
<path d="M152 200H144V208H152V200Z" fill="#5C5D66"/>
<path d="M144 200H136V208H144V200Z" fill="#5C5D66"/>
<path d="M136 200H128V208H136V200Z" fill="#5C5D66"/>
<path d="M128 200H120V208H128V200Z" fill="#5C5D66"/>
<path d="M120 200H112V208H120V200Z" fill="#5C5D66"/>
<path d="M112 216H104V224H112V216Z" fill="#5C5D66"/>
<path d="M112 208H104V216H112V208Z" fill="#5C5D66"/>
<path d="M120 208H112V216H120V208Z" fill="#CCD2D9"/>
<path d="M128 208H120V216H128V208Z" fill="#CCD2D9"/>
<path d="M136 208H128V216H136V208Z" fill="#CCD2D9"/>
<path d="M144 208H136V216H144V208Z" fill="#CCD2D9"/>
<path d="M152 208H144V216H152V208Z" fill="#CCD2D9"/>
<path d="M160 208H152V216H160V208Z" fill="white"/>
<path d="M120 216H112V224H120V216Z" fill="#CCD2D9"/>
<path d="M128 216H120V224H128V216Z" fill="#CCD2D9"/>
<path d="M136 216H128V224H136V216Z" fill="#CCD2D9"/>
<path d="M144 216H136V224H144V216Z" fill="#CCD2D9"/>
<path d="M152 216H144V224H152V216Z" fill="#CCD2D9"/>
<path d="M160 216H152V224H160V216Z" fill="#CCD2D9"/>
<path d="M120 216H112V224H120V216Z" fill="#171B1F"/>
<path d="M128 224H120V216H128V224Z" fill="#171B1F"/>
<path d="M128 208H120V216H128V208Z" fill="white"/>
<path d="M120 208H112V216H120V208Z" fill="#171B1F"/>
<path d="M264 208H256V216H264V208Z" fill="#5C5D66"/>
<path d="M264 216H256V224H264V216Z" fill="#5C5D66"/>
<path d="M208 216H200V224H208V216Z" fill="#5C5D66"/>
<path d="M208 208H200V216H208V208Z" fill="#5C5D66"/>
<path d="M216 200H208V208H216V200Z" fill="#5C5D66"/>
<path d="M224 200H216V208H224V200Z" fill="#5C5D66"/>
<path d="M232 200H224V208H232V200Z" fill="#5C5D66"/>
<path d="M240 200H232V208H240V200Z" fill="#5C5D66"/>
<path d="M248 200H240V208H248V200Z" fill="#5C5D66"/>
<path d="M256 200H248V208H256V200Z" fill="#5C5D66"/>
<path d="M256 224H248V232H256V224Z" fill="#5C5D66"/>
<path d="M248 224H240V232H248V224Z" fill="#5C5D66"/>
<path d="M240 224H232V232H240V224Z" fill="#5C5D66"/>
<path d="M232 224H224V232H232V224Z" fill="#5C5D66"/>
<path d="M224 224H216V232H224V224Z" fill="#5C5D66"/>
<path d="M216 224H208V232H216V224Z" fill="#5C5D66"/>
<path d="M216 208H208V216H216V208Z" fill="#CCD2D9"/>
<path d="M224 208H216V216H224V208Z" fill="#CCD2D9"/>
<path d="M232 208H224V216H232V208Z" fill="#CCD2D9"/>
<path d="M240 208H232V216H240V208Z" fill="#CCD2D9"/>
<path d="M248 208H240V216H248V208Z" fill="#CCD2D9"/>
<path d="M256 208H248V216H256V208Z" fill="white"/>
<path d="M216 216H208V224H216V216Z" fill="#CCD2D9"/>
<path d="M224 216H216V224H224V216Z" fill="#CCD2D9"/>
<path d="M232 216H224V224H232V216Z" fill="#CCD2D9"/>
<path d="M240 216H232V224H240V216Z" fill="#CCD2D9"/>
<path d="M248 216H240V224H248V216Z" fill="#CCD2D9"/>
<path d="M256 216H248V224H256V216Z" fill="#CCD2D9"/>
<path d="M216 216H208V224H216V216Z" fill="#171B1F"/>
<path d="M224 216H216V224H224V216Z" fill="#171B1F"/>
<path d="M224 208H216V216H224V208Z" fill="white"/>
<path d="M216 208H208V216H216V208Z" fill="#171B1F"/>
<path opacity="0.3" d="M208 224H200V232H208V224Z" fill="black"/>
</g>
<g clip-path="url(#clip2_849_309048)">
<path d="M184 216H176V224H184V216Z" fill="#963419"/>
<path d="M192 216H184V224H192V216Z" fill="#963419"/>
<path d="M192 232H184V240H192V232Z" fill="#F68F52"/>
<path d="M184 232H176V240H184V232Z" fill="#963419"/>
<path d="M192 240H184V248H192V240Z" fill="#963419"/>
<path d="M200 232H192V240H200V232Z" fill="#963419"/>
<path d="M176 232H168V240H176V232Z" fill="#963419"/>
<path d="M200 224H192V232H200V224Z" fill="#963419"/>
<path d="M176 224H168V232H176V224Z" fill="#963419"/>
<path d="M184 224H176V232H184V224Z" fill="#D7681B"/>
<path d="M192 224H184V232H192V224Z" fill="#FBBB72"/>
<path opacity="0.3" d="M176 240H168V248H176V240Z" fill="black"/>
<path opacity="0.3" d="M184 240H176V248H184V240Z" fill="black"/>
</g>
<g clip-path="url(#clip3_849_309048)">
<path d="M120 184H112V192H120V184Z" fill="#3D2C1F"/>
<path d="M128 184H120V192H128V184Z" fill="#3D2C1F"/>
<path d="M136 184H128V192H136V184Z" fill="#3D2C1F"/>
<path d="M144 184H136V192H144V184Z" fill="#3D2C1F"/>
<path d="M152 184H144V192H152V184Z" fill="#3D2C1F"/>
<path d="M160 184H152V192H160V184Z" fill="#3D2C1F"/>
<path d="M168 184H160V192H168V184Z" fill="#3D2C1F"/>
<path d="M176 184H168V192H176V184Z" fill="#3D2C1F"/>
<path d="M184 184H176V192H184V184Z" fill="#3D2C1F"/>
<path d="M192 184H184V192H192V184Z" fill="#3D2C1F"/>
<path d="M200 184H192V192H200V184Z" fill="#3D2C1F"/>
<path d="M208 184H200V192H208V184Z" fill="#3D2C1F"/>
<path d="M216 184H208V192H216V184Z" fill="#3D2C1F"/>
<path d="M224 184H216V192H224V184Z" fill="#3D2C1F"/>
<path d="M232 184H224V192H232V184Z" fill="#3D2C1F"/>
<path d="M240 184H232V192H240V184Z" fill="#3D2C1F"/>
<path d="M248 184H240V192H248V184Z" fill="#3D2C1F"/>
<path d="M256 184H248V192H256V184Z" fill="#3D2C1F"/>
<path d="M264 184H256V192H264V184Z" fill="#3D2C1F"/>
<path d="M272 184H264V192H272V184Z" fill="#3D2C1F"/>
<path d="M280 184H272V192H280V184Z" fill="#3D2C1F"/>
<path d="M288 184H280V192H288V184Z" fill="#3D2C1F"/>
<path d="M296 176H288V184H296V176Z" fill="#3D2C1F"/>
<path d="M304 168H296V176H304V168Z" fill="#3D2C1F"/>
<path d="M304 160H296V168H304V160Z" fill="#3D2C1F"/>
<path d="M304 152H296V160H304V152Z" fill="#3D2C1F"/>
<path d="M304 144H296V152H304V144Z" fill="#3D2C1F"/>
<path d="M296 136H288V144H296V136Z" fill="#3D2C1F"/>
<path d="M288 128H280V136H288V128Z" fill="#3D2C1F"/>
<path d="M280 128H272V136H280V128Z" fill="#3D2C1F"/>
<path d="M272 128H264V136H272V128Z" fill="#3D2C1F"/>
<path d="M264 128H256V136H264V128Z" fill="#3D2C1F"/>
<path d="M256 128H248V136H256V128Z" fill="#3D2C1F"/>
<path d="M112 184H104V192H112V184Z" fill="#3D2C1F"/>
<path d="M104 184H96V192H104V184Z" fill="#3D2C1F"/>
<path d="M96 184H88V192H96V184Z" fill="#3D2C1F"/>
<path d="M88 184H80V192H88V184Z" fill="#3D2C1F"/>
<path d="M80 184H72V192H80V184Z" fill="#3D2C1F"/>
<path d="M72 184H64V192H72V184Z" fill="#3D2C1F"/>
<path d="M64 184H56V192H64V184Z" fill="#3D2C1F"/>
<path d="M56 184H48V192H56V184Z" fill="#3D2C1F"/>
<path d="M48 176H40V184H48V176Z" fill="#3D2C1F"/>
<path d="M40 168H32V176H40V168Z" fill="#3D2C1F"/>
<path d="M40 160H32V168H40V160Z" fill="#3D2C1F"/>
<path d="M40 152H32V160H40V152Z" fill="#3D2C1F"/>
<path d="M40 144H32V152H40V144Z" fill="#3D2C1F"/>
<path d="M48 136H40V144H48V136Z" fill="#3D2C1F"/>
<path d="M56 128H48V136H56V128Z" fill="#3D2C1F"/>
<path d="M64 128H56V136H64V128Z" fill="#3D2C1F"/>
<path d="M72 128H64V136H72V128Z" fill="#3D2C1F"/>
<path d="M80 128H72V136H80V128Z" fill="#3D2C1F"/>
<path d="M88 128H80V136H88V128Z" fill="#3D2C1F"/>
<path d="M96 128H88V136H96V128Z" fill="#3D2C1F"/>
<path d="M104 128H96V136H104V128Z" fill="#3D2C1F"/>
<path d="M112 136H104V144H112V136Z" fill="#3D2C1F"/>
<path d="M120 144H112V152H120V144Z" fill="#3D2C1F"/>
<path d="M120 152H112V160H120V152Z" fill="#3D2C1F"/>
<path d="M128 160H120V168H128V160Z" fill="#3D2C1F"/>
<path d="M256 136H248V144H256V136Z" fill="#3D2C1F"/>
<path d="M248 128H240V136H248V128Z" fill="#3D2C1F"/>
<path d="M248 120H240V128H248V120Z" fill="#3D2C1F"/>
<path d="M248 112H240V120H248V112Z" fill="#3D2C1F"/>
<path d="M240 104H232V112H240V104Z" fill="#3D2C1F"/>
<path d="M240 96H232V104H240V96Z" fill="#3D2C1F"/>
<path d="M240 88H232V96H240V88Z" fill="#3D2C1F"/>
<path d="M224 80H216V88H224V80Z" fill="#3D2C1F"/>
<path d="M232 80H224V88H232V80Z" fill="#3D2C1F"/>
<path d="M216 80H208V88H216V80Z" fill="#3D2C1F"/>
<path d="M208 80H200V88H208V80Z" fill="#3D2C1F"/>
<path d="M200 88H192V96H200V88Z" fill="#3D2C1F"/>
<path d="M192 80H184V88H192V80Z" fill="#3D2C1F"/>
<path d="M176 80H168V88H176V80Z" fill="#3D2C1F"/>
<path d="M184 80H176V88H184V80Z" fill="#3D2C1F"/>
<path d="M168 80H160V88H168V80Z" fill="#3D2C1F"/>
<path d="M160 80H152V88H160V80Z" fill="#3D2C1F"/>
<path d="M152 80H144V88H152V80Z" fill="#3D2C1F"/>
<path d="M144 80H136V88H144V80Z" fill="#3D2C1F"/>
<path d="M128 80H120V88H128V80Z" fill="#3D2C1F"/>
<path d="M120 80H112V88H120V80Z" fill="#3D2C1F"/>
<path d="M112 80H104V88H112V80Z" fill="#3D2C1F"/>
<path d="M136 80H128V88H136V80Z" fill="#3D2C1F"/>
<path d="M104 88H96V96H104V88Z" fill="#3D2C1F"/>
<path d="M104 96H96V104H104V96Z" fill="#3D2C1F"/>
<path d="M104 104H96V112H104V104Z" fill="#3D2C1F"/>
<path d="M96 112H88V120H96V112Z" fill="#3D2C1F"/>
<path d="M96 120H88V128H96V120Z" fill="#3D2C1F"/>
<path d="M248 152H240V160H248V152Z" fill="#931D22"/>
<path d="M248 160H240V168H248V160Z" fill="#931D22"/>
<path d="M240 160H232V168H240V160Z" fill="#931D22"/>
<path d="M240 152H232V160H240V152Z" fill="#931D22"/>
<path d="M232 152H224V160H232V152Z" fill="#931D22"/>
<path d="M232 160H224V168H232V160Z" fill="#931D22"/>
<path d="M224 160H216V168H224V160Z" fill="#931D22"/>
<path d="M224 152H216V160H224V152Z" fill="#931D22"/>
<path d="M216 152H208V160H216V152Z" fill="#931D22"/>
<path d="M216 160H208V168H216V160Z" fill="#931D22"/>
<path d="M208 160H200V168H208V160Z" fill="#931D22"/>
<path d="M208 152H200V160H208V152Z" fill="#931D22"/>
<path d="M200 152H192V160H200V152Z" fill="#931D22"/>
<path d="M200 160H192V168H200V160Z" fill="#931D22"/>
<path d="M192 160H184V168H192V160Z" fill="#931D22"/>
<path d="M192 152H184V160H192V152Z" fill="#931D22"/>
<path d="M184 152H176V160H184V152Z" fill="#931D22"/>
<path d="M184 160H176V168H184V160Z" fill="#931D22"/>
<path d="M176 160H168V168H176V160Z" fill="#931D22"/>
<path d="M176 152H168V160H176V152Z" fill="#931D22"/>
<path d="M168 152H160V160H168V152Z" fill="#931D22"/>
<path d="M168 160H160V168H168V160Z" fill="#931D22"/>
<path d="M160 160H152V168H160V160Z" fill="#931D22"/>
<path d="M160 152H152V160H160V152Z" fill="#931D22"/>
<path d="M152 152H144V160H152V152Z" fill="#931D22"/>
<path d="M152 160H144V168H152V160Z" fill="#931D22"/>
<path d="M144 160H136V168H144V160Z" fill="#75181C"/>
<path d="M136 160H128V168H136V160Z" fill="#75181C"/>
<path d="M144 152H136V160H144V152Z" fill="#75181C"/>
<path d="M136 152H128V160H136V152Z" fill="#75181C"/>
<path d="M128 152H120V160H128V152Z" fill="#75181C"/>
<path d="M152 168H144V176H152V168Z" fill="#4D0B0B"/>
<path d="M160 168H152V176H160V168Z" fill="#4D0B0B"/>
<path d="M168 168H160V176H168V168Z" fill="#4D0B0B"/>
<path d="M176 168H168V176H176V168Z" fill="#4D0B0B"/>
<path d="M184 168H176V176H184V168Z" fill="#4D0B0B"/>
<path d="M192 168H184V176H192V168Z" fill="#4D0B0B"/>
<path d="M200 168H192V176H200V168Z" fill="#4D0B0B"/>
<path d="M208 168H200V176H208V168Z" fill="#4D0B0B"/>
<path d="M216 168H208V176H216V168Z" fill="#4D0B0B"/>
<path d="M224 168H216V176H224V168Z" fill="#4D0B0B"/>
<path d="M232 168H224V176H232V168Z" fill="#4D0B0B"/>
<path d="M240 168H232V176H240V168Z" fill="#4D0B0B"/>
<path d="M248 168H240V176H248V168Z" fill="#4D0B0B"/>
<path d="M256 160H248V168H256V160Z" fill="#4D0B0B"/>
<path d="M256 152H248V160H256V152Z" fill="#4D0B0B"/>
<path d="M256 144H248V152H256V144Z" fill="#4D0B0B"/>
<path d="M248 144H240V152H248V144Z" fill="#4D0B0B"/>
<path d="M240 144H232V152H240V144Z" fill="#4D0B0B"/>
<path d="M232 144H224V152H232V144Z" fill="#4D0B0B"/>
<path d="M224 144H216V152H224V144Z" fill="#4D0B0B"/>
<path d="M216 144H208V152H216V144Z" fill="#4D0B0B"/>
<path d="M208 144H200V152H208V144Z" fill="#4D0B0B"/>
<path d="M200 144H192V152H200V144Z" fill="#4D0B0B"/>
<path d="M192 144H184V152H192V144Z" fill="#4D0B0B"/>
<path d="M184 144H176V152H184V144Z" fill="#4D0B0B"/>
<path d="M176 144H168V152H176V144Z" fill="#4D0B0B"/>
<path d="M168 144H160V152H168V144Z" fill="#4D0B0B"/>
<path d="M160 144H152V152H160V144Z" fill="#4D0B0B"/>
<path d="M152 144H144V152H152V144Z" fill="#4D0B0B"/>
<path d="M144 144H136V152H144V144Z" fill="#4D0B0B"/>
<path d="M136 144H128V152H136V144Z" fill="#4D0B0B"/>
<path d="M128 144H120V152H128V144Z" fill="#4D0B0B"/>
<path d="M144 168H136V176H144V168Z" fill="#4D0B0B"/>
<path d="M136 168H128V176H136V168Z" fill="#4D0B0B"/>
<path d="M128 88H120V96H128V88Z" fill="#8E6B57"/>
<path d="M144 88H136V96H144V88Z" fill="#8E6B57"/>
<path d="M152 88H144V96H152V88Z" fill="#8E6B57"/>
<path d="M160 88H152V96H160V88Z" fill="#8E6B57"/>
<path d="M168 88H160V96H168V88Z" fill="#8E6B57"/>
<path d="M176 88H168V96H176V88Z" fill="#8E6B57"/>
<path d="M184 88H176V96H184V88Z" fill="#8E6B57"/>
<path d="M192 88H184V96H192V88Z" fill="#8E6B57"/>
<path d="M192 96H184V104H192V96Z" fill="#8E6B57"/>
<path d="M200 96H192V104H200V96Z" fill="#8E6B57"/>
<path d="M208 96H200V104H208V96Z" fill="#8E6B57"/>
<path d="M208 88H200V96H208V88Z" fill="#8E6B57"/>
<path d="M216 88H208V96H216V88Z" fill="#8E6B57"/>
<path d="M224 88H216V96H224V88Z" fill="#8E6B57"/>
<path d="M232 88H224V96H232V88Z" fill="#8E6B57"/>
<path d="M232 96H224V104H232V96Z" fill="#8E6B57"/>
<path d="M224 96H216V104H224V96Z" fill="#8E6B57"/>
<path d="M216 96H208V104H216V96Z" fill="#8E6B57"/>
<path d="M232 104H224V112H232V104Z" fill="#8E6B57"/>
<path d="M224 104H216V112H224V104Z" fill="#8E6B57"/>
<path d="M216 104H208V112H216V104Z" fill="#8E6B57"/>
<path d="M208 104H200V112H208V104Z" fill="#8E6B57"/>
<path d="M200 104H192V112H200V104Z" fill="#8E6B57"/>
<path d="M192 104H184V112H192V104Z" fill="#8E6B57"/>
<path d="M184 104H176V112H184V104Z" fill="#8E6B57"/>
<path d="M184 96H176V104H184V96Z" fill="#8E6B57"/>
<path d="M176 96H168V104H176V96Z" fill="#8E6B57"/>
<path d="M176 104H168V112H176V104Z" fill="#8E6B57"/>
<path d="M168 104H160V112H168V104Z" fill="#8E6B57"/>
<path d="M168 96H160V104H168V96Z" fill="#8E6B57"/>
<path d="M160 96H152V104H160V96Z" fill="#8E6B57"/>
<path d="M160 104H152V112H160V104Z" fill="#8E6B57"/>
<path d="M152 104H144V112H152V104Z" fill="#8E6B57"/>
<path d="M152 96H144V104H152V96Z" fill="#8E6B57"/>
<path d="M144 96H136V104H144V96Z" fill="#8E6B57"/>
<path d="M144 104H136V112H144V104Z" fill="#8E6B57"/>
<path d="M128 104H120V112H128V104Z" fill="#8E6B57"/>
<path d="M128 96H120V104H128V96Z" fill="#8E6B57"/>
<path d="M120 112H112V120H120V112Z" fill="#8E6B57"/>
<path d="M120 120H112V128H120V120Z" fill="#8E6B57"/>
<path d="M104 136H96V144H104V136Z" fill="#8E6B57"/>
<path d="M96 136H88V144H96V136Z" fill="#8E6B57"/>
<path d="M88 136H80V144H88V136Z" fill="#8E6B57"/>
<path d="M80 136H72V144H80V136Z" fill="#8E6B57"/>
<path d="M72 136H64V144H72V136Z" fill="#8E6B57"/>
<path d="M64 136H56V144H64V136Z" fill="#8E6B57"/>
<path d="M56 136H48V144H56V136Z" fill="#8E6B57"/>
<path d="M48 144H40V152H48V144Z" fill="#8E6B57"/>
<path d="M56 144H48V152H56V144Z" fill="#8E6B57"/>
<path d="M64 144H56V152H64V144Z" fill="#8E6B57"/>
<path d="M72 144H64V152H72V144Z" fill="#8E6B57"/>
<path d="M80 144H72V152H80V144Z" fill="#8E6B57"/>
<path d="M88 144H80V152H88V144Z" fill="#8E6B57"/>
<path d="M96 144H88V152H96V144Z" fill="#8E6B57"/>
<path d="M104 144H96V152H104V144Z" fill="#8E6B57"/>
<path d="M112 144H104V152H112V144Z" fill="#8E6B57"/>
<path d="M112 152H104V160H112V152Z" fill="#8E6B57"/>
<path d="M104 152H96V160H104V152Z" fill="#8E6B57"/>
<path d="M96 152H88V160H96V152Z" fill="#8E6B57"/>
<path d="M88 152H80V160H88V152Z" fill="#8E6B57"/>
<path d="M80 152H72V160H80V152Z" fill="#8E6B57"/>
<path d="M72 152H64V160H72V152Z" fill="#8E6B57"/>
<path d="M64 152H56V160H64V152Z" fill="#8E6B57"/>
<path d="M56 152H48V160H56V152Z" fill="#8E6B57"/>
<path d="M48 152H40V160H48V152Z" fill="#8E6B57"/>
<path d="M48 160H40V168H48V160Z" fill="#8E6B57"/>
<path d="M56 160H48V168H56V160Z" fill="#8E6B57"/>
<path d="M64 160H56V168H64V160Z" fill="#8E6B57"/>
<path d="M72 160H64V168H72V160Z" fill="#8E6B57"/>
<path d="M80 160H72V168H80V160Z" fill="#8E6B57"/>
<path d="M88 160H80V168H88V160Z" fill="#8E6B57"/>
<path d="M96 160H88V168H96V160Z" fill="#8E6B57"/>
<path d="M104 160H96V168H104V160Z" fill="#8E6B57"/>
<path d="M112 160H104V168H112V160Z" fill="#8E6B57"/>
<path d="M120 160H112V168H120V160Z" fill="#8E6B57"/>
<path d="M120 168H112V176H120V168Z" fill="#8E6B57"/>
<path d="M112 168H104V176H112V168Z" fill="#8E6B57"/>
<path d="M104 168H96V176H104V168Z" fill="#8E6B57"/>
<path d="M96 168H88V176H96V168Z" fill="#8E6B57"/>
<path d="M88 168H80V176H88V168Z" fill="#8E6B57"/>
<path d="M80 168H72V176H80V168Z" fill="#8E6B57"/>
<path d="M72 168H64V176H72V168Z" fill="#8E6B57"/>
<path d="M64 168H56V176H64V168Z" fill="#8E6B57"/>
<path d="M56 168H48V176H56V168Z" fill="#8E6B57"/>
<path d="M48 168H40V176H48V168Z" fill="#8E6B57"/>
<path d="M56 176H48V184H56V176Z" fill="#8E6B57"/>
<path d="M64 176H56V184H64V176Z" fill="#8E6B57"/>
<path d="M72 176H64V184H72V176Z" fill="#8E6B57"/>
<path d="M80 176H72V184H80V176Z" fill="#8E6B57"/>
<path d="M88 176H80V184H88V176Z" fill="#8E6B57"/>
<path d="M96 176H88V184H96V176Z" fill="#8E6B57"/>
<path d="M104 176H96V184H104V176Z" fill="#8E6B57"/>
<path d="M112 176H104V184H112V176Z" fill="#8E6B57"/>
<path d="M120 176H112V184H120V176Z" fill="#8E6B57"/>
<path d="M144 176H136V184H144V176Z" fill="#8E6B57"/>
<path d="M136 176H128V184H136V176Z" fill="#8E6B57"/>
<path d="M128 168H120V176H128V168Z" fill="#8E6B57"/>
<path d="M128 176H120V184H128V176Z" fill="#8E6B57"/>
<path d="M152 176H144V184H152V176Z" fill="#8E6B57"/>
<path d="M160 176H152V184H160V176Z" fill="#8E6B57"/>
<path d="M168 176H160V184H168V176Z" fill="#8E6B57"/>
<path d="M176 176H168V184H176V176Z" fill="#8E6B57"/>
<path d="M184 176H176V184H184V176Z" fill="#8E6B57"/>
<path d="M192 176H184V184H192V176Z" fill="#8E6B57"/>
<path d="M200 176H192V184H200V176Z" fill="#8E6B57"/>
<path d="M208 176H200V184H208V176Z" fill="#8E6B57"/>
<path d="M216 176H208V184H216V176Z" fill="#8E6B57"/>
<path d="M224 176H216V184H224V176Z" fill="#8E6B57"/>
<path d="M232 176H224V184H232V176Z" fill="#8E6B57"/>
<path d="M240 176H232V184H240V176Z" fill="#8E6B57"/>
<path d="M248 176H240V184H248V176Z" fill="#8E6B57"/>
<path d="M256 176H248V184H256V176Z" fill="#8E6B57"/>
<path d="M256 168H248V176H256V168Z" fill="#8E6B57"/>
<path d="M264 176H256V184H264V176Z" fill="#8E6B57"/>
<path d="M272 176H264V184H272V176Z" fill="#8E6B57"/>
<path d="M280 176H272V184H280V176Z" fill="#8E6B57"/>
<path d="M288 176H280V184H288V176Z" fill="#8E6B57"/>
<path d="M296 168H288V176H296V168Z" fill="#8E6B57"/>
<path d="M288 168H280V176H288V168Z" fill="#8E6B57"/>
<path d="M280 168H272V176H280V168Z" fill="#8E6B57"/>
<path d="M272 168H264V176H272V168Z" fill="#8E6B57"/>
<path d="M264 168H256V176H264V168Z" fill="#8E6B57"/>
<path d="M264 160H256V168H264V160Z" fill="#8E6B57"/>
<path d="M272 160H264V168H272V160Z" fill="#8E6B57"/>
<path d="M280 160H272V168H280V160Z" fill="#8E6B57"/>
<path d="M288 160H280V168H288V160Z" fill="#8E6B57"/>
<path d="M296 160H288V168H296V160Z" fill="#8E6B57"/>
<path d="M296 152H288V160H296V152Z" fill="#8E6B57"/>
<path d="M288 152H280V160H288V152Z" fill="#8E6B57"/>
<path d="M280 152H272V160H280V152Z" fill="#8E6B57"/>
<path d="M272 152H264V160H272V152Z" fill="#8E6B57"/>
<path d="M264 152H256V160H264V152Z" fill="#8E6B57"/>
<path d="M264 144H256V152H264V144Z" fill="#8E6B57"/>
<path d="M272 144H264V152H272V144Z" fill="#8E6B57"/>
<path d="M280 144H272V152H280V144Z" fill="#8E6B57"/>
<path d="M288 144H280V152H288V144Z" fill="#8E6B57"/>
<path d="M296 144H288V152H296V144Z" fill="#8E6B57"/>
<path d="M288 136H280V144H288V136Z" fill="#8E6B57"/>
<path d="M280 136H272V144H280V136Z" fill="#8E6B57"/>
<path d="M272 136H264V144H272V136Z" fill="#8E6B57"/>
<path d="M264 136H256V144H264V136Z" fill="#8E6B57"/>
<path d="M120 128H112V136H120V128Z" fill="#8E6B57"/>
<path d="M112 128H104V136H112V128Z" fill="#8E6B57"/>
<path d="M136 120H128V128H136V120Z" fill="#8E6B57"/>
<path d="M136 112H128V120H136V112Z" fill="#8E6B57"/>
<path d="M136 104H128V112H136V104Z" fill="#8E6B57"/>
<path d="M136 96H128V104H136V96Z" fill="#8E6B57"/>
<path d="M136 88H128V96H136V88Z" fill="#8E6B57"/>
<path d="M120 136H112V144H120V136Z" fill="#8E6B57"/>
<path d="M144 136H136V144H144V136Z" fill="#8E6B57"/>
<path d="M136 136H128V144H136V136Z" fill="#8E6B57"/>
<path d="M128 136H120V144H128V136Z" fill="#8E6B57"/>
<path d="M128 128H120V136H128V128Z" fill="#8E6B57"/>
<path d="M136 128H128V136H136V128Z" fill="#8E6B57"/>
<path d="M144 128H136V136H144V128Z" fill="#8E6B57"/>
<path d="M144 120H136V128H144V120Z" fill="#8E6B57"/>
<path d="M128 120H120V128H128V120Z" fill="#8E6B57"/>
<path d="M128 112H120V120H128V112Z" fill="#8E6B57"/>
<path d="M144 112H136V120H144V112Z" fill="#8E6B57"/>
<path d="M152 112H144V120H152V112Z" fill="#8E6B57"/>
<path d="M152 120H144V128H152V120Z" fill="#8E6B57"/>
<path d="M152 128H144V136H152V128Z" fill="#8E6B57"/>
<path d="M152 136H144V144H152V136Z" fill="#8E6B57"/>
<path d="M160 136H152V144H160V136Z" fill="#8E6B57"/>
<path d="M160 128H152V136H160V128Z" fill="#8E6B57"/>
<path d="M160 120H152V128H160V120Z" fill="#8E6B57"/>
<path d="M160 112H152V120H160V112Z" fill="#8E6B57"/>
<path d="M168 112H160V120H168V112Z" fill="#8E6B57"/>
<path d="M168 120H160V128H168V120Z" fill="#8E6B57"/>
<path d="M168 128H160V136H168V128Z" fill="#8E6B57"/>
<path d="M168 136H160V144H168V136Z" fill="#8E6B57"/>
<path d="M176 136H168V144H176V136Z" fill="#8E6B57"/>
<path d="M176 128H168V136H176V128Z" fill="#8E6B57"/>
<path d="M176 120H168V128H176V120Z" fill="#8E6B57"/>
<path d="M176 112H168V120H176V112Z" fill="#8E6B57"/>
<path d="M184 112H176V120H184V112Z" fill="#8E6B57"/>
<path d="M184 120H176V128H184V120Z" fill="#8E6B57"/>
<path d="M184 128H176V136H184V128Z" fill="#8E6B57"/>
<path d="M184 136H176V144H184V136Z" fill="#8E6B57"/>
<path d="M192 136H184V144H192V136Z" fill="#8E6B57"/>
<path d="M192 128H184V136H192V128Z" fill="#8E6B57"/>
<path d="M192 120H184V128H192V120Z" fill="#8E6B57"/>
<path d="M192 112H184V120H192V112Z" fill="#8E6B57"/>
<path d="M200 112H192V120H200V112Z" fill="#8E6B57"/>
<path d="M200 120H192V128H200V120Z" fill="#8E6B57"/>
<path d="M200 128H192V136H200V128Z" fill="#8E6B57"/>
<path d="M200 136H192V144H200V136Z" fill="#8E6B57"/>
<path d="M208 136H200V144H208V136Z" fill="#8E6B57"/>
<path d="M208 128H200V136H208V128Z" fill="#8E6B57"/>
<path d="M208 120H200V128H208V120Z" fill="#8E6B57"/>
<path d="M208 112H200V120H208V112Z" fill="#8E6B57"/>
<path d="M216 112H208V120H216V112Z" fill="#8E6B57"/>
<path d="M216 120H208V128H216V120Z" fill="#8E6B57"/>
<path d="M216 128H208V136H216V128Z" fill="#8E6B57"/>
<path d="M216 136H208V144H216V136Z" fill="#8E6B57"/>
<path d="M224 136H216V144H224V136Z" fill="#8E6B57"/>
<path d="M224 128H216V136H224V128Z" fill="#8E6B57"/>
<path d="M224 120H216V128H224V120Z" fill="#8E6B57"/>
<path d="M224 112H216V120H224V112Z" fill="#8E6B57"/>
<path d="M232 112H224V120H232V112Z" fill="#8E6B57"/>
<path d="M232 120H224V128H232V120Z" fill="#8E6B57"/>
<path d="M232 128H224V136H232V128Z" fill="#8E6B57"/>
<path d="M232 136H224V144H232V136Z" fill="#8E6B57"/>
<path d="M240 136H232V144H240V136Z" fill="#8E6B57"/>
<path d="M248 136H240V144H248V136Z" fill="#8E6B57"/>
<path d="M240 128H232V136H240V128Z" fill="#8E6B57"/>
<path d="M240 120H232V128H240V120Z" fill="#8E6B57"/>
<path d="M240 112H232V120H240V112Z" fill="#8E6B57"/>
<path d="M200 96H192V104H200V96Z" fill="#71503D"/>
<path d="M200 104H192V112H200V104Z" fill="#71503D"/>
<path d="M208 112H200V120H208V112Z" fill="#71503D"/>
<path d="M128 88H120V96H128V88Z" fill="#71503D"/>
<path d="M120 88H112V96H120V88Z" fill="#71503D"/>
<path d="M112 88H104V96H112V88Z" fill="#71503D"/>
<path d="M112 96H104V104H112V96Z" fill="#71503D"/>
<path d="M120 96H112V104H120V96Z" fill="#71503D"/>
<path d="M120 104H112V112H120V104Z" fill="#71503D"/>
<path d="M112 104H104V112H112V104Z" fill="#71503D"/>
<path d="M104 112H96V120H104V112Z" fill="#71503D"/>
<path d="M104 120H96V128H104V120Z" fill="#71503D"/>
<path d="M112 120H104V128H112V120Z" fill="#71503D"/>
<path d="M112 112H104V120H112V112Z" fill="#71503D"/>
<path d="M128 96H120V104H128V96Z" fill="#71503D"/>
<path d="M136 104H128V112H136V104Z" fill="#71503D"/>
<path d="M144 104H136V112H144V104Z" fill="#71503D"/>
<path d="M144 112H136V120H144V112Z" fill="#71503D"/>
<path d="M136 96H128V104H136V96Z" fill="#71503D"/>
<path d="M136 88H128V96H136V88Z" fill="#71503D"/>
<path d="M136 112H128V120H136V112Z" fill="#71503D"/>
<path d="M144 120H136V128H144V120Z" fill="#71503D"/>
<path d="M144 128H136V136H144V128Z" fill="#71503D"/>
<path d="M144 136H136V144H144V136Z" fill="#71503D"/>
<path d="M152 136H144V144H152V136Z" fill="#71503D"/>
<path d="M136 176H128V184H136V176Z" fill="#8E6B57"/>
<path d="M256 168H248V176H256V168Z" fill="#593D2C"/>
<path d="M264 168H256V176H264V168Z" fill="#593D2C"/>
<path d="M272 168H264V176H272V168Z" fill="#593D2C"/>
<path d="M272 160H264V168H272V160Z" fill="#71503D"/>
<path d="M280 160H272V168H280V160Z" fill="#71503D"/>
<path d="M280 168H272V176H280V168Z" fill="#71503D"/>
<path d="M272 152H264V160H272V152Z" fill="#71503D"/>
<path d="M264 144H256V152H264V144Z" fill="#71503D"/>
<path d="M264 152H256V160H264V152Z" fill="#71503D"/>
<path d="M264 160H256V168H264V160Z" fill="#71503D"/>
<path d="M128 176H120V184H128V176Z" fill="#593D2C"/>
<path d="M120 168H112V176H120V168Z" fill="#71503D"/>
<path d="M112 160H104V168H112V160Z" fill="#71503D"/>
<path d="M104 152H96V160H104V152Z" fill="#71503D"/>
<path d="M104 144H96V152H104V144Z" fill="#71503D"/>
<path d="M96 144H88V152H96V144Z" fill="#71503D"/>
<path d="M88 144H80V152H88V144Z" fill="#71503D"/>
<path d="M80 144H72V152H80V144Z" fill="#71503D"/>
<path d="M72 144H64V152H72V144Z" fill="#71503D"/>
<path d="M64 144H56V152H64V144Z" fill="#71503D"/>
<path d="M56 144H48V152H56V144Z" fill="#71503D"/>
<path d="M48 152H40V160H48V152Z" fill="#71503D"/>
<path d="M48 160H40V168H48V160Z" fill="#71503D"/>
<path d="M48 168H40V176H48V168Z" fill="#593D2C"/>
<path d="M56 168H48V176H56V168Z" fill="#593D2C"/>
<path d="M56 176H48V184H56V176Z" fill="#593D2C"/>
<path d="M64 176H56V184H64V176Z" fill="#593D2C"/>
<path d="M72 176H64V184H72V176Z" fill="#593D2C"/>
<path d="M80 176H72V184H80V176Z" fill="#593D2C"/>
<path d="M88 176H80V184H88V176Z" fill="#593D2C"/>
<path d="M96 176H88V184H96V176Z" fill="#593D2C"/>
<path d="M104 176H96V184H104V176Z" fill="#593D2C"/>
<path d="M112 176H104V184H112V176Z" fill="#593D2C"/>
<path d="M120 176H112V184H120V176Z" fill="#593D2C"/>
<path d="M112 168H104V176H112V168Z" fill="#593D2C"/>
<path d="M104 168H96V176H104V168Z" fill="#593D2C"/>
<path d="M96 168H88V176H96V168Z" fill="#593D2C"/>
<path d="M88 168H80V176H88V168Z" fill="#593D2C"/>
<path d="M80 168H72V176H80V168Z" fill="#593D2C"/>
<path d="M72 168H64V176H72V168Z" fill="#593D2C"/>
<path d="M64 168H56V176H64V168Z" fill="#593D2C"/>
<path d="M64 160H56V168H64V160Z" fill="#71503D"/>
<path d="M56 160H48V168H56V160Z" fill="#71503D"/>
<path d="M56 152H48V160H56V152Z" fill="#71503D"/>
<path d="M64 152H56V160H64V152Z" fill="#71503D"/>
<path d="M72 152H64V160H72V152Z" fill="#71503D"/>
<path d="M72 160H64V168H72V160Z" fill="#71503D"/>
<path d="M80 160H72V168H80V160Z" fill="#71503D"/>
<path d="M80 152H72V160H80V152Z" fill="#71503D"/>
<path d="M88 152H80V160H88V152Z" fill="#71503D"/>
<path d="M88 160H80V168H88V160Z" fill="#71503D"/>
<path d="M96 160H88V168H96V160Z" fill="#71503D"/>
<path d="M96 152H88V160H96V152Z" fill="#71503D"/>
<path d="M104 160H96V168H104V160Z" fill="#71503D"/>
<path d="M160 136H152V144H160V136Z" fill="#71503D"/>
<path d="M168 136H160V144H168V136Z" fill="#71503D"/>
<path d="M176 136H168V144H176V136Z" fill="#71503D"/>
<path d="M184 136H176V144H184V136Z" fill="#71503D"/>
<path d="M192 136H184V144H192V136Z" fill="#71503D"/>
<path d="M200 136H192V144H200V136Z" fill="#71503D"/>
<path d="M208 136H200V144H208V136Z" fill="#71503D"/>
<path d="M216 136H208V144H216V136Z" fill="#71503D"/>
<path d="M224 136H216V144H224V136Z" fill="#71503D"/>
<path d="M232 136H224V144H232V136Z" fill="#71503D"/>
<path d="M240 136H232V144H240V136Z" fill="#71503D"/>
<path d="M248 136H240V144H248V136Z" fill="#71503D"/>
<path d="M136 136H128V144H136V136Z" fill="#71503D"/>
<path d="M136 128H128V136H136V128Z" fill="#71503D"/>
<path d="M136 120H128V128H136V120Z" fill="#71503D"/>
<path d="M128 120H120V128H128V120Z" fill="#593D2C"/>
<path d="M128 112H120V120H128V112Z" fill="#593D2C"/>
<path d="M128 104H120V112H128V104Z" fill="#71503D"/>
<path d="M120 112H112V120H120V112Z" fill="#71503D"/>
<path d="M120 120H112V128H120V120Z" fill="#71503D"/>
<path d="M120 128H112V136H120V128Z" fill="#593D2C"/>
<path d="M112 128H104V136H112V128Z" fill="#593D2C"/>
<path d="M120 136H112V144H120V136Z" fill="#593D2C"/>
<path d="M128 136H120V144H128V136Z" fill="#71503D"/>
<path d="M128 128H120V136H128V128Z" fill="#71503D"/>
<path d="M208 96H200V104H208V96Z" fill="#71503D"/>
<path d="M208 88H200V96H208V88Z" fill="#71503D"/>
<path d="M216 152H208V160H216V152Z" fill="#CB3036"/>
<path d="M216 160H208V168H216V160Z" fill="#CB3036"/>
<path d="M224 160H216V168H224V160Z" fill="#CB3036"/>
<path d="M224 152H216V160H224V152Z" fill="#CB3036"/>
<path d="M232 88H224V96H232V88Z" fill="#C9A288"/>
<path d="M232 96H224V104H232V96Z" fill="#C9A288"/>
<path d="M232 104H224V112H232V104Z" fill="#C9A288"/>
<path d="M208 120H200V128H208V120Z" fill="#C9A288"/>
<path d="M104 136H96V144H104V136Z" fill="#C9A288"/>
<path d="M96 136H88V144H96V136Z" fill="#C9A288"/>
<path d="M88 136H80V144H88V136Z" fill="#C9A288"/>
<path d="M80 136H72V144H80V136Z" fill="#C9A288"/>
<path d="M72 136H64V144H72V136Z" fill="#C9A288"/>
<path d="M64 136H56V144H64V136Z" fill="#C9A288"/>
<path d="M56 136H48V144H56V136Z" fill="#C9A288"/>
<path d="M112 144H104V152H112V144Z" fill="#C9A288"/>
<path d="M112 152H104V160H112V152Z" fill="#C9A288"/>
<path d="M120 160H112V168H120V160Z" fill="#C9A288"/>
<path d="M288 136H280V144H288V136Z" fill="#C9A288"/>
<path d="M280 136H272V144H280V136Z" fill="#C9A288"/>
<path d="M272 136H264V144H272V136Z" fill="#C9A288"/>
<path d="M296 144H288V152H296V144Z" fill="#C9A288"/>
<path d="M200 112H192V120H200V112Z" fill="#C9A288"/>
<path d="M240 112H232V120H240V112Z" fill="#C9A288"/>
<path d="M240 120H232V128H240V120Z" fill="#C9A288"/>
<path d="M240 128H232V136H240V128Z" fill="#C9A288"/>
<g opacity="0.3">
<path opacity="0.3" d="M88 192H80V200H88V192Z" fill="black"/>
<path opacity="0.3" d="M96 192H88V200H96V192Z" fill="black"/>
<path opacity="0.3" d="M104 192H96V200H104V192Z" fill="black"/>
<path opacity="0.3" d="M112 192H104V200H112V192Z" fill="black"/>
<path opacity="0.3" d="M120 192H112V200H120V192Z" fill="black"/>
<path opacity="0.3" d="M128 192H120V200H128V192Z" fill="black"/>
<path opacity="0.3" d="M136 192H128V200H136V192Z" fill="black"/>
<path opacity="0.3" d="M144 192H136V200H144V192Z" fill="black"/>
<path opacity="0.3" d="M152 192H144V200H152V192Z" fill="black"/>
<path opacity="0.3" d="M160 192H152V200H160V192Z" fill="black"/>
<path opacity="0.3" d="M168 192H160V200H168V192Z" fill="black"/>
<path opacity="0.3" d="M176 192H168V200H176V192Z" fill="black"/>
<path opacity="0.3" d="M184 192H176V200H184V192Z" fill="black"/>
<path opacity="0.3" d="M192 192H184V200H192V192Z" fill="black"/>
<path opacity="0.3" d="M200 192H192V200H200V192Z" fill="black"/>
<path opacity="0.3" d="M208 192H200V200H208V192Z" fill="black"/>
<path opacity="0.3" d="M216 192H208V200H216V192Z" fill="black"/>
<path opacity="0.3" d="M224 192H216V200H224V192Z" fill="black"/>
<path opacity="0.3" d="M232 192H224V200H232V192Z" fill="black"/>
<path opacity="0.3" d="M240 192H232V200H240V192Z" fill="black"/>
<path opacity="0.3" d="M248 192H240V200H248V192Z" fill="black"/>
<path opacity="0.3" d="M256 192H248V200H256V192Z" fill="black"/>
</g>
</g>
<defs>
<clipPath id="clip0_849_309048">
<rect width="336" height="336" fill="white"/>
</clipPath>
<clipPath id="clip1_849_309048">
<rect width="336" height="336" fill="white"/>
</clipPath>
<clipPath id="clip2_849_309048">
<rect width="336" height="336" fill="white"/>
</clipPath>
<clipPath id="clip3_849_309048">
<rect width="336" height="336" fill="white"/>
</clipPath>
</defs>
</svg>
